<svg width="800" height="800" viewBox="0 0 800 800" fill="none" xmlns="http://www.w3.org/2000/svg">
<g clip-path="url(#clip0_23_10)">
<rect width="800" height="800" rx="400" fill="white"/>
<path d="M190 186H990V986H190V186Z" fill="white" fill-opacity="0.82"/>
<path fill-rule="evenodd" clip-rule="evenodd" d="M277.998 636.746C313.61 652.981 353.406 662.059 395.396 662.059C547.494 662.059 670.793 542.953 670.793 396.029C670.793 395.028 670.787 394.028 670.776 393.029L629.63 418.56C617.892 531.785 518.644 622.059 395.396 622.059C369.12 622.059 343.935 617.955 320.455 610.401L277.998 636.746ZM469.149 181.279C446.009 173.966 421.23 170 395.396 170C272.583 170 173.601 259.639 161.29 372.303L120.007 397.919C120.002 397.29 120 396.66 120 396.029C120 249.105 243.299 130 395.396 130C436.979 130 476.409 138.902 511.755 154.842L469.149 181.279Z" fill="#94002D"/>
<path fill-rule="evenodd" clip-rule="evenodd" d="M540.031 496.371C491.638 562.163 398.769 586.035 321.047 547.435C299.829 536.897 281.875 522.763 267.537 506.229L224.44 507.789C243.549 536.813 270.649 561.468 304.603 578.331C405.463 628.423 529.018 590.997 582.406 494.837L540.031 496.371ZM212.262 313.478L253.242 311.995C299.706 239.926 397.055 212.387 477.981 252.579C502.51 264.761 522.678 281.749 537.938 301.695L579.567 300.189C560.316 267.715 531.444 240.068 494.425 221.683C392.472 171.048 267.329 209.838 214.911 308.324C214 310.035 213.117 311.753 212.262 313.478Z" fill="#AB2B52" fill-opacity="0.73"/>
<path d="M237.344 386.594C237.344 388.969 236.891 391.062 235.984 392.875C235.109 394.688 233.859 396.203 232.234 397.422C230.609 398.641 228.688 399.547 226.469 400.141C224.25 400.766 221.844 401.078 219.25 401.078C217.688 401.078 216.188 400.953 214.75 400.703C213.344 400.484 212.078 400.203 210.953 399.859C209.828 399.484 208.891 399.109 208.141 398.734C207.391 398.359 206.844 398.016 206.5 397.703C206.156 397.359 205.891 396.844 205.703 396.156C205.516 395.438 205.422 394.391 205.422 393.016C205.422 392.109 205.453 391.391 205.516 390.859C205.578 390.297 205.672 389.859 205.797 389.547C205.922 389.203 206.078 388.984 206.266 388.891C206.453 388.766 206.688 388.703 206.969 388.703C207.312 388.703 207.812 388.906 208.469 389.312C209.156 389.688 210 390.109 211 390.578C212 391.047 213.156 391.484 214.469 391.891C215.812 392.297 217.328 392.5 219.016 392.5C220.078 392.5 221.016 392.391 221.828 392.172C222.672 391.953 223.391 391.641 223.984 391.234C224.609 390.828 225.078 390.312 225.391 389.688C225.703 389.062 225.859 388.344 225.859 387.531C225.859 386.594 225.562 385.797 224.969 385.141C224.406 384.453 223.641 383.859 222.672 383.359C221.734 382.859 220.656 382.391 219.438 381.953C218.25 381.516 217.016 381.031 215.734 380.5C214.484 379.969 213.25 379.359 212.031 378.672C210.844 377.984 209.766 377.141 208.797 376.141C207.859 375.141 207.094 373.938 206.5 372.531C205.938 371.125 205.656 369.438 205.656 367.469C205.656 365.469 206.047 363.641 206.828 361.984C207.609 360.297 208.734 358.859 210.203 357.672C211.672 356.484 213.453 355.562 215.547 354.906C217.672 354.25 220.047 353.922 222.672 353.922C223.984 353.922 225.25 354.016 226.469 354.203C227.719 354.391 228.844 354.625 229.844 354.906C230.844 355.188 231.688 355.5 232.375 355.844C233.062 356.156 233.547 356.438 233.828 356.688C234.141 356.906 234.359 357.141 234.484 357.391C234.609 357.609 234.703 357.891 234.766 358.234C234.828 358.547 234.875 358.953 234.906 359.453C234.969 359.922 235 360.516 235 361.234C235 362.078 234.969 362.766 234.906 363.297C234.875 363.828 234.797 364.25 234.672 364.562C234.578 364.875 234.438 365.094 234.25 365.219C234.062 365.312 233.844 365.359 233.594 365.359C233.312 365.359 232.875 365.203 232.281 364.891C231.688 364.547 230.938 364.188 230.031 363.812C229.156 363.438 228.125 363.094 226.938 362.781C225.781 362.438 224.453 362.266 222.953 362.266C221.891 362.266 220.969 362.375 220.188 362.594C219.406 362.812 218.766 363.125 218.266 363.531C217.766 363.938 217.391 364.422 217.141 364.984C216.891 365.516 216.766 366.094 216.766 366.719C216.766 367.688 217.062 368.5 217.656 369.156C218.25 369.812 219.031 370.391 220 370.891C220.969 371.391 222.062 371.859 223.281 372.297C224.531 372.734 225.781 373.219 227.031 373.75C228.312 374.25 229.562 374.844 230.781 375.531C232.031 376.219 233.141 377.062 234.109 378.062C235.078 379.062 235.859 380.266 236.453 381.672C237.047 383.047 237.344 384.688 237.344 386.594ZM269.875 394.281C269.875 395.656 269.781 396.719 269.594 397.469C269.438 398.188 269.219 398.703 268.938 399.016C268.656 399.297 268.234 399.562 267.672 399.812C267.141 400.031 266.5 400.219 265.75 400.375C265.031 400.562 264.234 400.703 263.359 400.797C262.516 400.891 261.656 400.938 260.781 400.938C258.438 400.938 256.406 400.641 254.688 400.047C252.969 399.453 251.547 398.547 250.422 397.328C249.297 396.078 248.469 394.516 247.938 392.641C247.406 390.766 247.141 388.547 247.141 385.984V364.562H242.125C241.531 364.562 241.078 364.203 240.766 363.484C240.453 362.734 240.297 361.5 240.297 359.781C240.297 358.875 240.328 358.109 240.391 357.484C240.484 356.859 240.609 356.375 240.766 356.031C240.922 355.656 241.109 355.391 241.328 355.234C241.578 355.078 241.859 355 242.172 355H247.141V345.672C247.141 345.359 247.219 345.078 247.375 344.828C247.562 344.578 247.875 344.375 248.312 344.219C248.781 344.031 249.391 343.906 250.141 343.844C250.922 343.75 251.875 343.703 253 343.703C254.156 343.703 255.109 343.75 255.859 343.844C256.641 343.906 257.25 344.031 257.688 344.219C258.125 344.375 258.438 344.578 258.625 344.828C258.812 345.078 258.906 345.359 258.906 345.672V355H268C268.312 355 268.578 355.078 268.797 355.234C269.047 355.391 269.25 355.656 269.406 356.031C269.562 356.375 269.672 356.859 269.734 357.484C269.828 358.109 269.875 358.875 269.875 359.781C269.875 361.5 269.719 362.734 269.406 363.484C269.094 364.203 268.641 364.562 268.047 364.562H258.906V384.203C258.906 386.484 259.266 388.203 259.984 389.359C260.703 390.484 261.984 391.047 263.828 391.047C264.453 391.047 265.016 391 265.516 390.906C266.016 390.781 266.453 390.656 266.828 390.531C267.234 390.375 267.562 390.25 267.812 390.156C268.094 390.031 268.344 389.969 268.562 389.969C268.75 389.969 268.922 390.031 269.078 390.156C269.266 390.25 269.406 390.469 269.5 390.812C269.594 391.125 269.672 391.562 269.734 392.125C269.828 392.688 269.875 393.406 269.875 394.281ZM313.094 398.547C313.094 398.984 312.938 399.328 312.625 399.578C312.312 399.828 311.812 400 311.125 400.094C310.469 400.219 309.484 400.281 308.172 400.281C306.766 400.281 305.734 400.219 305.078 400.094C304.453 400 304 399.828 303.719 399.578C303.469 399.328 303.344 398.984 303.344 398.547V395.219C301.625 397.062 299.656 398.5 297.438 399.531C295.25 400.562 292.812 401.078 290.125 401.078C287.906 401.078 285.859 400.781 283.984 400.188C282.141 399.625 280.531 398.781 279.156 397.656C277.812 396.5 276.766 395.078 276.016 393.391C275.266 391.703 274.891 389.734 274.891 387.484C274.891 385.047 275.359 382.938 276.297 381.156C277.266 379.344 278.688 377.859 280.562 376.703C282.469 375.516 284.828 374.641 287.641 374.078C290.453 373.516 293.719 373.234 297.438 373.234H301.516V370.703C301.516 369.391 301.375 368.25 301.094 367.281C300.844 366.281 300.406 365.453 299.781 364.797C299.188 364.141 298.375 363.656 297.344 363.344C296.344 363.031 295.094 362.875 293.594 362.875C291.625 362.875 289.859 363.094 288.297 363.531C286.766 363.969 285.406 364.453 284.219 364.984C283.031 365.516 282.031 366 281.219 366.438C280.438 366.875 279.797 367.094 279.297 367.094C278.953 367.094 278.641 366.984 278.359 366.766C278.109 366.547 277.891 366.234 277.703 365.828C277.547 365.422 277.422 364.922 277.328 364.328C277.234 363.734 277.188 363.078 277.188 362.359C277.188 361.391 277.266 360.625 277.422 360.062C277.578 359.5 277.875 359 278.312 358.562C278.75 358.094 279.516 357.594 280.609 357.062C281.703 356.5 282.984 355.984 284.453 355.516C285.922 355.047 287.516 354.672 289.234 354.391C290.984 354.078 292.781 353.922 294.625 353.922C297.906 353.922 300.703 354.25 303.016 354.906C305.359 355.531 307.281 356.516 308.781 357.859C310.281 359.172 311.375 360.875 312.062 362.969C312.75 365.062 313.094 367.547 313.094 370.422V398.547ZM301.516 380.641H297.016C295.109 380.641 293.484 380.781 292.141 381.062C290.797 381.344 289.703 381.766 288.859 382.328C288.016 382.891 287.391 383.578 286.984 384.391C286.609 385.172 286.422 386.078 286.422 387.109C286.422 388.859 286.969 390.234 288.062 391.234C289.188 392.234 290.734 392.734 292.703 392.734C294.359 392.734 295.875 392.312 297.25 391.469C298.656 390.625 300.078 389.391 301.516 387.766V380.641ZM351.766 360.484C351.766 361.609 351.734 362.531 351.672 363.25C351.609 363.969 351.516 364.531 351.391 364.938C351.266 365.344 351.094 365.625 350.875 365.781C350.688 365.938 350.438 366.016 350.125 366.016C349.875 366.016 349.594 365.969 349.281 365.875C348.969 365.75 348.609 365.625 348.203 365.5C347.828 365.375 347.406 365.266 346.938 365.172C346.469 365.047 345.953 364.984 345.391 364.984C344.734 364.984 344.078 365.125 343.422 365.406C342.766 365.656 342.078 366.062 341.359 366.625C340.672 367.188 339.938 367.938 339.156 368.875C338.406 369.812 337.594 370.969 336.719 372.344V398.406C336.719 398.719 336.625 399 336.438 399.25C336.25 399.469 335.922 399.656 335.453 399.812C335.016 399.969 334.422 400.078 333.672 400.141C332.922 400.234 331.969 400.281 330.812 400.281C329.656 400.281 328.703 400.234 327.953 400.141C327.203 400.078 326.594 399.969 326.125 399.812C325.688 399.656 325.375 399.469 325.188 399.25C325 399 324.906 398.719 324.906 398.406V356.594C324.906 356.281 324.984 356.016 325.141 355.797C325.297 355.547 325.578 355.344 325.984 355.188C326.391 355.031 326.906 354.922 327.531 354.859C328.188 354.766 329 354.719 329.969 354.719C330.969 354.719 331.797 354.766 332.453 354.859C333.109 354.922 333.609 355.031 333.953 355.188C334.328 355.344 334.594 355.547 334.75 355.797C334.906 356.016 334.984 356.281 334.984 356.594V361.797C336.078 360.234 337.109 358.953 338.078 357.953C339.047 356.922 339.969 356.109 340.844 355.516C341.719 354.922 342.594 354.516 343.469 354.297C344.344 354.047 345.219 353.922 346.094 353.922C346.5 353.922 346.938 353.953 347.406 354.016C347.875 354.047 348.359 354.125 348.859 354.25C349.359 354.344 349.797 354.469 350.172 354.625C350.547 354.75 350.812 354.891 350.969 355.047C351.156 355.203 351.281 355.375 351.344 355.562C351.438 355.75 351.516 356.016 351.578 356.359C351.641 356.672 351.688 357.156 351.719 357.812C351.75 358.469 351.766 359.359 351.766 360.484ZM383.781 394.281C383.781 395.656 383.688 396.719 383.5 397.469C383.344 398.188 383.125 398.703 382.844 399.016C382.562 399.297 382.141 399.562 381.578 399.812C381.047 400.031 380.406 400.219 379.656 400.375C378.938 400.562 378.141 400.703 377.266 400.797C376.422 400.891 375.562 400.938 374.688 400.938C372.344 400.938 370.312 400.641 368.594 400.047C366.875 399.453 365.453 398.547 364.328 397.328C363.203 396.078 362.375 394.516 361.844 392.641C361.312 390.766 361.047 388.547 361.047 385.984V364.562H356.031C355.438 364.562 354.984 364.203 354.672 363.484C354.359 362.734 354.203 361.5 354.203 359.781C354.203 358.875 354.234 358.109 354.297 357.484C354.391 356.859 354.516 356.375 354.672 356.031C354.828 355.656 355.016 355.391 355.234 355.234C355.484 355.078 355.766 355 356.078 355H361.047V345.672C361.047 345.359 361.125 345.078 361.281 344.828C361.469 344.578 361.781 344.375 362.219 344.219C362.688 344.031 363.297 343.906 364.047 343.844C364.828 343.75 365.781 343.703 366.906 343.703C368.062 343.703 369.016 343.75 369.766 343.844C370.547 343.906 371.156 344.031 371.594 344.219C372.031 344.375 372.344 344.578 372.531 344.828C372.719 345.078 372.812 345.359 372.812 345.672V355H381.906C382.219 355 382.484 355.078 382.703 355.234C382.953 355.391 383.156 355.656 383.312 356.031C383.469 356.375 383.578 356.859 383.641 357.484C383.734 358.109 383.781 358.875 383.781 359.781C383.781 361.5 383.625 362.734 383.312 363.484C383 364.203 382.547 364.562 381.953 364.562H372.812V384.203C372.812 386.484 373.172 388.203 373.891 389.359C374.609 390.484 375.891 391.047 377.734 391.047C378.359 391.047 378.922 391 379.422 390.906C379.922 390.781 380.359 390.656 380.734 390.531C381.141 390.375 381.469 390.25 381.719 390.156C382 390.031 382.25 389.969 382.469 389.969C382.656 389.969 382.828 390.031 382.984 390.156C383.172 390.25 383.312 390.469 383.406 390.812C383.5 391.125 383.578 391.562 383.641 392.125C383.734 392.688 383.781 393.406 383.781 394.281Z" fill="black"/>
<path d="M388.344 469.594C388.344 471.969 387.891 474.062 386.984 475.875C386.109 477.688 384.859 479.203 383.234 480.422C381.609 481.641 379.688 482.547 377.469 483.141C375.25 483.766 372.844 484.078 370.25 484.078C368.688 484.078 367.188 483.953 365.75 483.703C364.344 483.484 363.078 483.203 361.953 482.859C360.828 482.484 359.891 482.109 359.141 481.734C358.391 481.359 357.844 481.016 357.5 480.703C357.156 480.359 356.891 479.844 356.703 479.156C356.516 478.438 356.422 477.391 356.422 476.016C356.422 475.109 356.453 474.391 356.516 473.859C356.578 473.297 356.672 472.859 356.797 472.547C356.922 472.203 357.078 471.984 357.266 471.891C357.453 471.766 357.688 471.703 357.969 471.703C358.312 471.703 358.812 471.906 359.469 472.312C360.156 472.688 361 473.109 362 473.578C363 474.047 364.156 474.484 365.469 474.891C366.812 475.297 368.328 475.5 370.016 475.5C371.078 475.5 372.016 475.391 372.828 475.172C373.672 474.953 374.391 474.641 374.984 474.234C375.609 473.828 376.078 473.312 376.391 472.688C376.703 472.062 376.859 471.344 376.859 470.531C376.859 469.594 376.562 468.797 375.969 468.141C375.406 467.453 374.641 466.859 373.672 466.359C372.734 465.859 371.656 465.391 370.438 464.953C369.25 464.516 368.016 464.031 366.734 463.5C365.484 462.969 364.25 462.359 363.031 461.672C361.844 460.984 360.766 460.141 359.797 459.141C358.859 458.141 358.094 456.938 357.5 455.531C356.938 454.125 356.656 452.438 356.656 450.469C356.656 448.469 357.047 446.641 357.828 444.984C358.609 443.297 359.734 441.859 361.203 440.672C362.672 439.484 364.453 438.562 366.547 437.906C368.672 437.25 371.047 436.922 373.672 436.922C374.984 436.922 376.25 437.016 377.469 437.203C378.719 437.391 379.844 437.625 380.844 437.906C381.844 438.188 382.688 438.5 383.375 438.844C384.062 439.156 384.547 439.438 384.828 439.688C385.141 439.906 385.359 440.141 385.484 440.391C385.609 440.609 385.703 440.891 385.766 441.234C385.828 441.547 385.875 441.953 385.906 442.453C385.969 442.922 386 443.516 386 444.234C386 445.078 385.969 445.766 385.906 446.297C385.875 446.828 385.797 447.25 385.672 447.562C385.578 447.875 385.438 448.094 385.25 448.219C385.062 448.312 384.844 448.359 384.594 448.359C384.312 448.359 383.875 448.203 383.281 447.891C382.688 447.547 381.938 447.188 381.031 446.812C380.156 446.438 379.125 446.094 377.938 445.781C376.781 445.438 375.453 445.266 373.953 445.266C372.891 445.266 371.969 445.375 371.188 445.594C370.406 445.812 369.766 446.125 369.266 446.531C368.766 446.938 368.391 447.422 368.141 447.984C367.891 448.516 367.766 449.094 367.766 449.719C367.766 450.688 368.062 451.5 368.656 452.156C369.25 452.812 370.031 453.391 371 453.891C371.969 454.391 373.062 454.859 374.281 455.297C375.531 455.734 376.781 456.219 378.031 456.75C379.312 457.25 380.562 457.844 381.781 458.531C383.031 459.219 384.141 460.062 385.109 461.062C386.078 462.062 386.859 463.266 387.453 464.672C388.047 466.047 388.344 467.688 388.344 469.594ZM463.766 481.406C463.766 481.719 463.672 482 463.484 482.25C463.297 482.469 462.984 482.656 462.547 482.812C462.109 482.969 461.516 483.078 460.766 483.141C460.016 483.234 459.062 483.281 457.906 483.281C456.719 483.281 455.75 483.234 455 483.141C454.25 483.078 453.641 482.969 453.172 482.812C452.734 482.656 452.422 482.469 452.234 482.25C452.078 482 452 481.719 452 481.406V456.609C452 455.203 451.859 453.922 451.578 452.766C451.328 451.609 450.922 450.625 450.359 449.812C449.828 448.969 449.141 448.328 448.297 447.891C447.484 447.422 446.5 447.188 445.344 447.188C443.938 447.188 442.516 447.734 441.078 448.828C439.641 449.922 438.078 451.516 436.391 453.609V481.406C436.391 481.719 436.297 482 436.109 482.25C435.922 482.469 435.594 482.656 435.125 482.812C434.688 482.969 434.094 483.078 433.344 483.141C432.594 483.234 431.656 483.281 430.531 483.281C429.375 483.281 428.422 483.234 427.672 483.141C426.922 483.078 426.312 482.969 425.844 482.812C425.406 482.656 425.094 482.469 424.906 482.25C424.719 482 424.625 481.719 424.625 481.406V456.609C424.625 455.203 424.484 453.922 424.203 452.766C423.953 451.609 423.562 450.625 423.031 449.812C422.5 448.969 421.812 448.328 420.969 447.891C420.125 447.422 419.141 447.188 418.016 447.188C416.578 447.188 415.141 447.734 413.703 448.828C412.266 449.922 410.719 451.516 409.062 453.609V481.406C409.062 481.719 408.969 482 408.781 482.25C408.594 482.469 408.266 482.656 407.797 482.812C407.359 482.969 406.766 483.078 406.016 483.141C405.266 483.234 404.312 483.281 403.156 483.281C402 483.281 401.047 483.234 400.297 483.141C399.547 483.078 398.938 482.969 398.469 482.812C398.031 482.656 397.719 482.469 397.531 482.25C397.344 482 397.25 481.719 397.25 481.406V439.594C397.25 439.281 397.328 439.016 397.484 438.797C397.641 438.547 397.922 438.344 398.328 438.188C398.734 438.031 399.25 437.922 399.875 437.859C400.531 437.766 401.344 437.719 402.312 437.719C403.312 437.719 404.141 437.766 404.797 437.859C405.453 437.922 405.953 438.031 406.297 438.188C406.672 438.344 406.938 438.547 407.094 438.797C407.25 439.016 407.328 439.281 407.328 439.594V444.422C409.641 441.922 411.938 440.047 414.219 438.797C416.531 437.547 418.938 436.922 421.438 436.922C423.156 436.922 424.703 437.109 426.078 437.484C427.453 437.828 428.672 438.344 429.734 439.031C430.828 439.688 431.766 440.484 432.547 441.422C433.328 442.359 433.984 443.406 434.516 444.562C435.766 443.219 436.984 442.062 438.172 441.094C439.391 440.125 440.578 439.344 441.734 438.75C442.922 438.125 444.094 437.672 445.25 437.391C446.438 437.078 447.641 436.922 448.859 436.922C451.641 436.922 453.984 437.391 455.891 438.328C457.797 439.266 459.328 440.547 460.484 442.172C461.672 443.766 462.516 445.641 463.016 447.797C463.516 449.953 463.766 452.234 463.766 454.641V481.406ZM510.969 481.547C510.969 481.984 510.812 482.328 510.5 482.578C510.188 482.828 509.688 483 509 483.094C508.344 483.219 507.359 483.281 506.047 483.281C504.641 483.281 503.609 483.219 502.953 483.094C502.328 483 501.875 482.828 501.594 482.578C501.344 482.328 501.219 481.984 501.219 481.547V478.219C499.5 480.062 497.531 481.5 495.312 482.531C493.125 483.562 490.688 484.078 488 484.078C485.781 484.078 483.734 483.781 481.859 483.188C480.016 482.625 478.406 481.781 477.031 480.656C475.688 479.5 474.641 478.078 473.891 476.391C473.141 474.703 472.766 472.734 472.766 470.484C472.766 468.047 473.234 465.938 474.172 464.156C475.141 462.344 476.562 460.859 478.438 459.703C480.344 458.516 482.703 457.641 485.516 457.078C488.328 456.516 491.594 456.234 495.312 456.234H499.391V453.703C499.391 452.391 499.25 451.25 498.969 450.281C498.719 449.281 498.281 448.453 497.656 447.797C497.062 447.141 496.25 446.656 495.219 446.344C494.219 446.031 492.969 445.875 491.469 445.875C489.5 445.875 487.734 446.094 486.172 446.531C484.641 446.969 483.281 447.453 482.094 447.984C480.906 448.516 479.906 449 479.094 449.438C478.312 449.875 477.672 450.094 477.172 450.094C476.828 450.094 476.516 449.984 476.234 449.766C475.984 449.547 475.766 449.234 475.578 448.828C475.422 448.422 475.297 447.922 475.203 447.328C475.109 446.734 475.062 446.078 475.062 445.359C475.062 444.391 475.141 443.625 475.297 443.062C475.453 442.5 475.75 442 476.188 441.562C476.625 441.094 477.391 440.594 478.484 440.062C479.578 439.5 480.859 438.984 482.328 438.516C483.797 438.047 485.391 437.672 487.109 437.391C488.859 437.078 490.656 436.922 492.5 436.922C495.781 436.922 498.578 437.25 500.891 437.906C503.234 438.531 505.156 439.516 506.656 440.859C508.156 442.172 509.25 443.875 509.938 445.969C510.625 448.062 510.969 450.547 510.969 453.422V481.547ZM499.391 463.641H494.891C492.984 463.641 491.359 463.781 490.016 464.062C488.672 464.344 487.578 464.766 486.734 465.328C485.891 465.891 485.266 466.578 484.859 467.391C484.484 468.172 484.297 469.078 484.297 470.109C484.297 471.859 484.844 473.234 485.938 474.234C487.062 475.234 488.609 475.734 490.578 475.734C492.234 475.734 493.75 475.312 495.125 474.469C496.531 473.625 497.953 472.391 499.391 470.766V463.641ZM549.641 443.484C549.641 444.609 549.609 445.531 549.547 446.25C549.484 446.969 549.391 447.531 549.266 447.938C549.141 448.344 548.969 448.625 548.75 448.781C548.562 448.938 548.312 449.016 548 449.016C547.75 449.016 547.469 448.969 547.156 448.875C546.844 448.75 546.484 448.625 546.078 448.5C545.703 448.375 545.281 448.266 544.812 448.172C544.344 448.047 543.828 447.984 543.266 447.984C542.609 447.984 541.953 448.125 541.297 448.406C540.641 448.656 539.953 449.062 539.234 449.625C538.547 450.188 537.812 450.938 537.031 451.875C536.281 452.812 535.469 453.969 534.594 455.344V481.406C534.594 481.719 534.5 482 534.312 482.25C534.125 482.469 533.797 482.656 533.328 482.812C532.891 482.969 532.297 483.078 531.547 483.141C530.797 483.234 529.844 483.281 528.688 483.281C527.531 483.281 526.578 483.234 525.828 483.141C525.078 483.078 524.469 482.969 524 482.812C523.562 482.656 523.25 482.469 523.062 482.25C522.875 482 522.781 481.719 522.781 481.406V439.594C522.781 439.281 522.859 439.016 523.016 438.797C523.172 438.547 523.453 438.344 523.859 438.188C524.266 438.031 524.781 437.922 525.406 437.859C526.062 437.766 526.875 437.719 527.844 437.719C528.844 437.719 529.672 437.766 530.328 437.859C530.984 437.922 531.484 438.031 531.828 438.188C532.203 438.344 532.469 438.547 532.625 438.797C532.781 439.016 532.859 439.281 532.859 439.594V444.797C533.953 443.234 534.984 441.953 535.953 440.953C536.922 439.922 537.844 439.109 538.719 438.516C539.594 437.922 540.469 437.516 541.344 437.297C542.219 437.047 543.094 436.922 543.969 436.922C544.375 436.922 544.812 436.953 545.281 437.016C545.75 437.047 546.234 437.125 546.734 437.25C547.234 437.344 547.672 437.469 548.047 437.625C548.422 437.75 548.688 437.891 548.844 438.047C549.031 438.203 549.156 438.375 549.219 438.562C549.312 438.75 549.391 439.016 549.453 439.359C549.516 439.672 549.562 440.156 549.594 440.812C549.625 441.469 549.641 442.359 549.641 443.484ZM581.656 477.281C581.656 478.656 581.562 479.719 581.375 480.469C581.219 481.188 581 481.703 580.719 482.016C580.438 482.297 580.016 482.562 579.453 482.812C578.922 483.031 578.281 483.219 577.531 483.375C576.812 483.562 576.016 483.703 575.141 483.797C574.297 483.891 573.438 483.938 572.562 483.938C570.219 483.938 568.188 483.641 566.469 483.047C564.75 482.453 563.328 481.547 562.203 480.328C561.078 479.078 560.25 477.516 559.719 475.641C559.188 473.766 558.922 471.547 558.922 468.984V447.562H553.906C553.312 447.562 552.859 447.203 552.547 446.484C552.234 445.734 552.078 444.5 552.078 442.781C552.078 441.875 552.109 441.109 552.172 440.484C552.266 439.859 552.391 439.375 552.547 439.031C552.703 438.656 552.891 438.391 553.109 438.234C553.359 438.078 553.641 438 553.953 438H558.922V428.672C558.922 428.359 559 428.078 559.156 427.828C559.344 427.578 559.656 427.375 560.094 427.219C560.562 427.031 561.172 426.906 561.922 426.844C562.703 426.75 563.656 426.703 564.781 426.703C565.938 426.703 566.891 426.75 567.641 426.844C568.422 426.906 569.031 427.031 569.469 427.219C569.906 427.375 570.219 427.578 570.406 427.828C570.594 428.078 570.688 428.359 570.688 428.672V438H579.781C580.094 438 580.359 438.078 580.578 438.234C580.828 438.391 581.031 438.656 581.188 439.031C581.344 439.375 581.453 439.859 581.516 440.484C581.609 441.109 581.656 441.875 581.656 442.781C581.656 444.5 581.5 445.734 581.188 446.484C580.875 447.203 580.422 447.562 579.828 447.562H570.688V467.203C570.688 469.484 571.047 471.203 571.766 472.359C572.484 473.484 573.766 474.047 575.609 474.047C576.234 474.047 576.797 474 577.297 473.906C577.797 473.781 578.234 473.656 578.609 473.531C579.016 473.375 579.344 473.25 579.594 473.156C579.875 473.031 580.125 472.969 580.344 472.969C580.531 472.969 580.703 473.031 580.859 473.156C581.047 473.25 581.188 473.469 581.281 473.812C581.375 474.125 581.453 474.562 581.516 475.125C581.609 475.688 581.656 476.406 581.656 477.281Z" fill="black"/>
</g>
<defs>
<clipPath id="clip0_23_10">
<rect width="800" height="800" rx="400" fill="white"/>
</clipPath>
</defs>
</svg>
