<svg width="85" height="30" viewBox="0 0 85 30" fill="none" xmlns="http://www.w3.org/2000/svg">
<rect width="85" height="30" rx="5" fill="#163536"/>
<path d="M32.54 19L35.672 10.12H37.148L40.292 19H39.044L38.3 16.876H34.532L33.788 19H32.54ZM34.892 15.82H37.94L36.416 11.464L34.892 15.82ZM44.3216 19.12C43.8016 19.12 43.3456 19.028 42.9536 18.844C42.5616 18.652 42.2336 18.4 41.9696 18.088C41.7136 17.768 41.5176 17.412 41.3816 17.02C41.2536 16.628 41.1896 16.228 41.1896 15.82C41.1896 15.412 41.2536 15.016 41.3816 14.632C41.5096 14.24 41.7016 13.884 41.9576 13.564C42.2216 13.244 42.5496 12.992 42.9416 12.808C43.3336 12.616 43.7936 12.52 44.3216 12.52C44.8336 12.52 45.2576 12.596 45.5936 12.748C45.9296 12.9 46.1976 13.092 46.3976 13.324C46.6056 13.548 46.7576 13.776 46.8536 14.008C46.9576 14.232 47.0256 14.42 47.0576 14.572C47.0896 14.724 47.1056 14.8 47.1056 14.8H46.0016C46.0016 14.8 45.9816 14.736 45.9416 14.608C45.9016 14.472 45.8256 14.32 45.7136 14.152C45.6016 13.984 45.4336 13.836 45.2096 13.708C44.9856 13.572 44.6896 13.504 44.3216 13.504C43.8816 13.504 43.5096 13.616 43.2056 13.84C42.9096 14.056 42.6856 14.34 42.5336 14.692C42.3896 15.044 42.3176 15.42 42.3176 15.82C42.3176 16.22 42.3896 16.596 42.5336 16.948C42.6856 17.3 42.9096 17.588 43.2056 17.812C43.5096 18.028 43.8816 18.136 44.3216 18.136C44.6896 18.136 44.9856 18.072 45.2096 17.944C45.4336 17.808 45.6016 17.656 45.7136 17.488C45.8256 17.32 45.9016 17.172 45.9416 17.044C45.9816 16.908 46.0016 16.84 46.0016 16.84H47.1056C47.1056 16.84 47.0896 16.916 47.0576 17.068C47.0256 17.22 46.9576 17.412 46.8536 17.644C46.7576 17.868 46.6056 18.096 46.3976 18.328C46.1976 18.552 45.9296 18.74 45.5936 18.892C45.2576 19.044 44.8336 19.12 44.3216 19.12ZM51.2369 19.12C50.5809 19.12 50.0849 18.952 49.7489 18.616C49.4209 18.28 49.2569 17.808 49.2569 17.2V13.576H48.1169V12.64H49.2569V11.044H50.3969V12.64H51.9449V13.576H50.3969V17.2C50.3969 17.52 50.4849 17.756 50.6609 17.908C50.8369 18.052 51.0929 18.124 51.4289 18.124C51.6049 18.124 51.7729 18.112 51.9329 18.088C52.0929 18.064 52.1729 18.052 52.1729 18.052V19.024C52.1729 19.024 52.0809 19.04 51.8969 19.072C51.7129 19.104 51.4929 19.12 51.2369 19.12ZM54.2818 11.428C54.0658 11.428 53.8858 11.356 53.7418 11.212C53.6058 11.068 53.5378 10.896 53.5378 10.696C53.5378 10.488 53.6058 10.312 53.7418 10.168C53.8858 10.024 54.0658 9.952 54.2818 9.952C54.4898 9.952 54.6658 10.024 54.8098 10.168C54.9538 10.312 55.0258 10.488 55.0258 10.696C55.0258 10.896 54.9538 11.068 54.8098 11.212C54.6658 11.356 54.4898 11.428 54.2818 11.428ZM53.7178 19V12.64H54.8578V19H53.7178ZM58.5738 19L56.1498 12.64H57.3378L59.1978 17.608L61.0218 12.64H62.2218L59.7858 19H58.5738ZM66.0095 19.12C65.4895 19.12 65.0375 19.028 64.6535 18.844C64.2775 18.652 63.9655 18.396 63.7175 18.076C63.4775 17.756 63.2975 17.404 63.1775 17.02C63.0575 16.628 62.9975 16.228 62.9975 15.82C62.9975 15.42 63.0535 15.024 63.1655 14.632C63.2855 14.24 63.4655 13.884 63.7055 13.564C63.9535 13.244 64.2615 12.992 64.6295 12.808C65.0055 12.616 65.4495 12.52 65.9615 12.52C66.5055 12.52 66.9855 12.644 67.4015 12.892C67.8175 13.14 68.1455 13.508 68.3855 13.996C68.6255 14.484 68.7455 15.096 68.7455 15.832V16.168H64.1495C64.1735 16.528 64.2575 16.86 64.4015 17.164C64.5535 17.46 64.7655 17.7 65.0375 17.884C65.3095 18.06 65.6335 18.148 66.0095 18.148C66.3375 18.148 66.6015 18.096 66.8015 17.992C67.0095 17.88 67.1735 17.752 67.2935 17.608C67.4135 17.464 67.4935 17.34 67.5335 17.236C67.5815 17.124 67.6055 17.068 67.6055 17.068H68.6735C68.6735 17.068 68.6535 17.14 68.6135 17.284C68.5735 17.42 68.5015 17.588 68.3975 17.788C68.2935 17.988 68.1415 18.192 67.9415 18.4C67.7415 18.6 67.4855 18.772 67.1735 18.916C66.8615 19.052 66.4735 19.12 66.0095 19.12ZM64.1615 15.28H67.6295C67.6135 14.864 67.5255 14.528 67.3655 14.272C67.2055 14.008 67.0015 13.812 66.7535 13.684C66.5055 13.556 66.2415 13.492 65.9615 13.492C65.4575 13.492 65.0455 13.656 64.7255 13.984C64.4055 14.304 64.2175 14.736 64.1615 15.28Z" fill="#13ED8E"/>
<ellipse cx="16.9477" cy="15.2049" rx="2.52976" ry="2.58621" fill="#13ED8E"/>
</svg>
