<svg width="97" height="30" viewBox="0 0 97 30" fill="none" xmlns="http://www.w3.org/2000/svg">
<rect width="97" height="30" rx="5" fill="#1F2A3E"/>
<path d="M32.96 19V10.12H35.84C36.552 10.12 37.172 10.248 37.7 10.504C38.228 10.752 38.668 11.088 39.02 11.512C39.372 11.936 39.636 12.412 39.812 12.94C39.988 13.468 40.076 14.008 40.076 14.56C40.076 15.112 39.988 15.652 39.812 16.18C39.636 16.708 39.372 17.184 39.02 17.608C38.668 18.032 38.228 18.372 37.7 18.628C37.172 18.876 36.552 19 35.84 19H32.96ZM35.792 11.152H34.136V17.968H35.792C36.312 17.968 36.764 17.872 37.148 17.68C37.54 17.488 37.864 17.232 38.12 16.912C38.384 16.584 38.58 16.216 38.708 15.808C38.836 15.4 38.9 14.984 38.9 14.56C38.9 14.136 38.836 13.72 38.708 13.312C38.58 12.904 38.384 12.54 38.12 12.22C37.864 11.892 37.54 11.632 37.148 11.44C36.764 11.248 36.312 11.152 35.792 11.152ZM42.1825 11.428C41.9665 11.428 41.7865 11.356 41.6425 11.212C41.5065 11.068 41.4385 10.896 41.4385 10.696C41.4385 10.488 41.5065 10.312 41.6425 10.168C41.7865 10.024 41.9665 9.952 42.1825 9.952C42.3905 9.952 42.5665 10.024 42.7105 10.168C42.8545 10.312 42.9265 10.488 42.9265 10.696C42.9265 10.896 42.8545 11.068 42.7105 11.212C42.5665 11.356 42.3905 11.428 42.1825 11.428ZM41.6185 19V12.64H42.7585V19H41.6185ZM46.7985 19.12C46.3105 19.12 45.9065 19.052 45.5865 18.916C45.2745 18.78 45.0265 18.612 44.8425 18.412C44.6585 18.204 44.5225 18 44.4345 17.8C44.3465 17.592 44.2905 17.42 44.2665 17.284C44.2425 17.148 44.2305 17.08 44.2305 17.08H45.3825C45.3825 17.08 45.3945 17.136 45.4185 17.248C45.4505 17.352 45.5105 17.476 45.5985 17.62C45.6945 17.756 45.8385 17.88 46.0305 17.992C46.2305 18.096 46.4945 18.148 46.8225 18.148C47.1985 18.148 47.4905 18.06 47.6985 17.884C47.9065 17.7 48.0105 17.476 48.0105 17.212C48.0105 16.98 47.9265 16.796 47.7585 16.66C47.5985 16.524 47.3665 16.42 47.0625 16.348L46.1985 16.144C45.8785 16.064 45.5785 15.956 45.2985 15.82C45.0185 15.684 44.7905 15.5 44.6145 15.268C44.4465 15.028 44.3625 14.732 44.3625 14.38C44.3625 13.836 44.5665 13.392 44.9745 13.048C45.3825 12.696 45.9145 12.52 46.5705 12.52C47.0105 12.52 47.3745 12.584 47.6625 12.712C47.9505 12.832 48.1785 12.984 48.3465 13.168C48.5225 13.352 48.6505 13.536 48.7305 13.72C48.8185 13.904 48.8745 14.06 48.8985 14.188C48.9225 14.308 48.9345 14.368 48.9345 14.368H47.8305C47.8305 14.368 47.8185 14.324 47.7945 14.236C47.7705 14.14 47.7145 14.036 47.6265 13.924C47.5465 13.804 47.4225 13.7 47.2545 13.612C47.0865 13.516 46.8625 13.468 46.5825 13.468C46.1985 13.468 45.9185 13.556 45.7425 13.732C45.5665 13.908 45.4785 14.1 45.4785 14.308C45.4785 14.508 45.5585 14.672 45.7185 14.8C45.8865 14.92 46.1025 15.012 46.3665 15.076L47.2425 15.28C47.7865 15.408 48.2345 15.62 48.5865 15.916C48.9465 16.204 49.1265 16.62 49.1265 17.164C49.1265 17.516 49.0345 17.844 48.8505 18.148C48.6665 18.444 48.4025 18.68 48.0585 18.856C47.7145 19.032 47.2945 19.12 46.7985 19.12ZM53.0751 12.52C53.4751 12.52 53.8111 12.584 54.0831 12.712C54.3551 12.84 54.5751 12.992 54.7431 13.168C54.9111 13.336 55.0391 13.496 55.1271 13.648H55.1991V12.64H56.3391V19H55.1991V17.992H55.1271C55.0391 18.144 54.9111 18.308 54.7431 18.484C54.5751 18.66 54.3551 18.812 54.0831 18.94C53.8111 19.06 53.4751 19.12 53.0751 19.12C52.5951 19.12 52.1751 19.028 51.8151 18.844C51.4551 18.652 51.1551 18.4 50.9151 18.088C50.6751 17.768 50.4951 17.412 50.3751 17.02C50.2551 16.628 50.1951 16.228 50.1951 15.82C50.1951 15.412 50.2551 15.012 50.3751 14.62C50.4951 14.228 50.6751 13.876 50.9151 13.564C51.1551 13.244 51.4551 12.992 51.8151 12.808C52.1751 12.616 52.5951 12.52 53.0751 12.52ZM53.2671 13.492C52.8431 13.492 52.4871 13.608 52.1991 13.84C51.9111 14.064 51.6951 14.352 51.5511 14.704C51.4151 15.056 51.3471 15.428 51.3471 15.82C51.3471 16.204 51.4151 16.576 51.5511 16.936C51.6951 17.288 51.9111 17.58 52.1991 17.812C52.4871 18.036 52.8431 18.148 53.2671 18.148C53.6911 18.148 54.0431 18.036 54.3231 17.812C54.6111 17.58 54.8231 17.288 54.9591 16.936C55.1031 16.576 55.1751 16.204 55.1751 15.82C55.1751 15.428 55.1031 15.056 54.9591 14.704C54.8231 14.352 54.6111 14.064 54.3231 13.84C54.0431 13.608 53.6911 13.492 53.2671 13.492ZM61.2663 19.12C60.8663 19.12 60.5303 19.056 60.2583 18.928C59.9863 18.8 59.7663 18.648 59.5983 18.472C59.4383 18.296 59.3103 18.136 59.2143 17.992H59.1423V19H58.0023V9.88H59.1423V13.648H59.2143C59.3103 13.496 59.4383 13.332 59.5983 13.156C59.7663 12.98 59.9863 12.832 60.2583 12.712C60.5303 12.584 60.8663 12.52 61.2663 12.52C61.7463 12.52 62.1663 12.616 62.5263 12.808C62.8863 12.992 63.1863 13.244 63.4263 13.564C63.6663 13.876 63.8463 14.228 63.9663 14.62C64.0863 15.012 64.1463 15.412 64.1463 15.82C64.1463 16.228 64.0863 16.628 63.9663 17.02C63.8463 17.412 63.6663 17.768 63.4263 18.088C63.1863 18.4 62.8863 18.652 62.5263 18.844C62.1663 19.028 61.7463 19.12 61.2663 19.12ZM61.0743 18.148C61.5063 18.148 61.8623 18.036 62.1423 17.812C62.4303 17.58 62.6423 17.288 62.7783 16.936C62.9223 16.576 62.9943 16.204 62.9943 15.82C62.9943 15.428 62.9223 15.056 62.7783 14.704C62.6423 14.352 62.4303 14.064 62.1423 13.84C61.8623 13.608 61.5063 13.492 61.0743 13.492C60.6503 13.492 60.2943 13.608 60.0063 13.84C59.7263 14.064 59.5143 14.352 59.3703 14.704C59.2343 15.056 59.1663 15.428 59.1663 15.82C59.1663 16.204 59.2343 16.576 59.3703 16.936C59.5143 17.288 59.7263 17.58 60.0063 17.812C60.2943 18.036 60.6503 18.148 61.0743 18.148ZM65.6984 19L65.7104 9.88H66.8384V19H65.6984ZM71.397 19.12C70.877 19.12 70.425 19.028 70.041 18.844C69.665 18.652 69.353 18.396 69.105 18.076C68.865 17.756 68.685 17.404 68.565 17.02C68.445 16.628 68.385 16.228 68.385 15.82C68.385 15.42 68.441 15.024 68.553 14.632C68.673 14.24 68.853 13.884 69.093 13.564C69.341 13.244 69.649 12.992 70.017 12.808C70.393 12.616 70.837 12.52 71.349 12.52C71.893 12.52 72.373 12.644 72.789 12.892C73.205 13.14 73.533 13.508 73.773 13.996C74.013 14.484 74.133 15.096 74.133 15.832V16.168H69.537C69.561 16.528 69.645 16.86 69.789 17.164C69.941 17.46 70.153 17.7 70.425 17.884C70.697 18.06 71.021 18.148 71.397 18.148C71.725 18.148 71.989 18.096 72.189 17.992C72.397 17.88 72.561 17.752 72.681 17.608C72.801 17.464 72.881 17.34 72.921 17.236C72.969 17.124 72.993 17.068 72.993 17.068H74.061C74.061 17.068 74.041 17.14 74.001 17.284C73.961 17.42 73.889 17.588 73.785 17.788C73.681 17.988 73.529 18.192 73.329 18.4C73.129 18.6 72.873 18.772 72.561 18.916C72.249 19.052 71.861 19.12 71.397 19.12ZM69.549 15.28H73.017C73.001 14.864 72.913 14.528 72.753 14.272C72.593 14.008 72.389 13.812 72.141 13.684C71.893 13.556 71.629 13.492 71.349 13.492C70.845 13.492 70.433 13.656 70.113 13.984C69.793 14.304 69.605 14.736 69.549 15.28ZM78.258 19.12C77.778 19.12 77.358 19.028 76.998 18.844C76.638 18.652 76.338 18.4 76.098 18.088C75.858 17.768 75.678 17.412 75.558 17.02C75.438 16.628 75.378 16.228 75.378 15.82C75.378 15.412 75.438 15.012 75.558 14.62C75.678 14.228 75.858 13.876 76.098 13.564C76.338 13.244 76.638 12.992 76.998 12.808C77.358 12.616 77.778 12.52 78.258 12.52C78.658 12.52 78.994 12.584 79.266 12.712C79.538 12.84 79.758 12.992 79.926 13.168C80.094 13.336 80.222 13.496 80.31 13.648H80.382V9.88H81.522V19H80.382V17.992H80.31C80.222 18.144 80.094 18.308 79.926 18.484C79.758 18.66 79.538 18.812 79.266 18.94C78.994 19.06 78.658 19.12 78.258 19.12ZM78.45 18.148C78.874 18.148 79.226 18.036 79.506 17.812C79.794 17.58 80.006 17.288 80.142 16.936C80.286 16.576 80.358 16.204 80.358 15.82C80.358 15.428 80.286 15.056 80.142 14.704C80.006 14.352 79.794 14.064 79.506 13.84C79.226 13.608 78.874 13.492 78.45 13.492C78.026 13.492 77.67 13.608 77.382 13.84C77.094 14.064 76.878 14.352 76.734 14.704C76.598 15.056 76.53 15.428 76.53 15.82C76.53 16.204 76.598 16.576 76.734 16.936C76.878 17.288 77.094 17.58 77.382 17.812C77.67 18.036 78.026 18.148 78.45 18.148Z" fill="#00D1FF"/>
<ellipse cx="17.4478" cy="14.5862" rx="2.23684" ry="2.58621" fill="#00D1FF"/>
</svg>
