<svg width="21" height="25" viewBox="0 0 21 25" fill="none" xmlns="http://www.w3.org/2000/svg">
<path d="M16.625 4.06003H15.75V2.03003H14V4.06003H7V2.03003H5.25V4.06003H4.375C3.4125 4.06003 2.625 4.97353 2.625 6.09003V20.3C2.625 21.4165 3.4125 22.33 4.375 22.33H16.625C17.5875 22.33 18.375 21.4165 18.375 20.3V6.09003C18.375 4.97353 17.5875 4.06003 16.625 4.06003ZM16.625 20.3H4.375V10.15H16.625V20.3ZM4.375 8.12003V6.09003H16.625V8.12003H4.375ZM6.125 12.18H14.875V14.21H6.125V12.18ZM6.125 16.24H12.25V18.27H6.125V16.24Z" fill="#7A847A"/>
</svg>
