<svg width="97" height="30" viewBox="0 0 97 30" fill="none" xmlns="http://www.w3.org/2000/svg">
<rect width="97" height="30" rx="5" fill="#1F2A3E"/>
<path d="M35.86 19.12C35.164 19.12 34.552 18.992 34.024 18.736C33.496 18.472 33.056 18.124 32.704 17.692C32.36 17.252 32.1 16.764 31.924 16.228C31.748 15.684 31.66 15.128 31.66 14.56C31.66 13.992 31.748 13.436 31.924 12.892C32.1 12.348 32.36 11.86 32.704 11.428C33.056 10.988 33.496 10.64 34.024 10.384C34.552 10.128 35.164 10 35.86 10C36.436 10 36.928 10.076 37.336 10.228C37.752 10.372 38.096 10.56 38.368 10.792C38.648 11.024 38.872 11.272 39.04 11.536C39.216 11.8 39.344 12.048 39.424 12.28C39.512 12.512 39.568 12.704 39.592 12.856C39.624 13 39.64 13.072 39.64 13.072H38.464C38.464 13.072 38.448 13.008 38.416 12.88C38.384 12.744 38.32 12.58 38.224 12.388C38.128 12.188 37.984 11.988 37.792 11.788C37.6 11.588 37.348 11.424 37.036 11.296C36.724 11.16 36.336 11.092 35.872 11.092C35.368 11.092 34.928 11.192 34.552 11.392C34.176 11.584 33.86 11.848 33.604 12.184C33.356 12.512 33.168 12.884 33.04 13.3C32.92 13.708 32.86 14.128 32.86 14.56C32.86 14.992 32.92 15.416 33.04 15.832C33.168 16.24 33.356 16.612 33.604 16.948C33.86 17.276 34.176 17.54 34.552 17.74C34.928 17.932 35.368 18.028 35.872 18.028C36.336 18.028 36.724 17.96 37.036 17.824C37.348 17.688 37.6 17.524 37.792 17.332C37.984 17.132 38.128 16.936 38.224 16.744C38.32 16.544 38.384 16.376 38.416 16.24C38.448 16.104 38.464 16.036 38.464 16.036H39.64C39.64 16.036 39.624 16.112 39.592 16.264C39.568 16.408 39.512 16.6 39.424 16.84C39.344 17.072 39.216 17.32 39.04 17.584C38.872 17.84 38.648 18.088 38.368 18.328C38.096 18.56 37.752 18.752 37.336 18.904C36.928 19.048 36.436 19.12 35.86 19.12ZM41.0127 19V12.64H42.1527V13.432H42.2007C42.3367 13.192 42.5367 12.98 42.8007 12.796C43.0647 12.612 43.4367 12.52 43.9167 12.52C44.0527 12.52 44.1767 12.528 44.2887 12.544C44.4007 12.552 44.4567 12.556 44.4567 12.556V13.648C44.4567 13.648 44.3927 13.644 44.2647 13.636C44.1447 13.62 44.0167 13.612 43.8807 13.612C43.3287 13.612 42.9007 13.772 42.5967 14.092C42.3007 14.404 42.1527 14.916 42.1527 15.628V19H41.0127ZM47.9914 19.12C47.4714 19.12 47.0194 19.028 46.6354 18.844C46.2594 18.652 45.9474 18.396 45.6994 18.076C45.4594 17.756 45.2794 17.404 45.1594 17.02C45.0394 16.628 44.9794 16.228 44.9794 15.82C44.9794 15.42 45.0354 15.024 45.1474 14.632C45.2674 14.24 45.4474 13.884 45.6874 13.564C45.9354 13.244 46.2434 12.992 46.6114 12.808C46.9874 12.616 47.4314 12.52 47.9434 12.52C48.4874 12.52 48.9674 12.644 49.3834 12.892C49.7994 13.14 50.1274 13.508 50.3674 13.996C50.6074 14.484 50.7274 15.096 50.7274 15.832V16.168H46.1314C46.1554 16.528 46.2394 16.86 46.3834 17.164C46.5354 17.46 46.7474 17.7 47.0194 17.884C47.2914 18.06 47.6154 18.148 47.9914 18.148C48.3194 18.148 48.5834 18.096 48.7834 17.992C48.9914 17.88 49.1554 17.752 49.2754 17.608C49.3954 17.464 49.4754 17.34 49.5154 17.236C49.5634 17.124 49.5874 17.068 49.5874 17.068H50.6554C50.6554 17.068 50.6354 17.14 50.5954 17.284C50.5554 17.42 50.4834 17.588 50.3794 17.788C50.2754 17.988 50.1234 18.192 49.9234 18.4C49.7234 18.6 49.4674 18.772 49.1554 18.916C48.8434 19.052 48.4554 19.12 47.9914 19.12ZM46.1434 15.28H49.6114C49.5954 14.864 49.5074 14.528 49.3474 14.272C49.1874 14.008 48.9834 13.812 48.7354 13.684C48.4874 13.556 48.2234 13.492 47.9434 13.492C47.4394 13.492 47.0274 13.656 46.7074 13.984C46.3874 14.304 46.1994 14.736 46.1434 15.28ZM54.8524 12.52C55.2524 12.52 55.5884 12.584 55.8604 12.712C56.1324 12.84 56.3524 12.992 56.5204 13.168C56.6884 13.336 56.8164 13.496 56.9044 13.648H56.9764V12.64H58.1164V19H56.9764V17.992H56.9044C56.8164 18.144 56.6884 18.308 56.5204 18.484C56.3524 18.66 56.1324 18.812 55.8604 18.94C55.5884 19.06 55.2524 19.12 54.8524 19.12C54.3724 19.12 53.9524 19.028 53.5924 18.844C53.2324 18.652 52.9324 18.4 52.6924 18.088C52.4524 17.768 52.2724 17.412 52.1524 17.02C52.0324 16.628 51.9724 16.228 51.9724 15.82C51.9724 15.412 52.0324 15.012 52.1524 14.62C52.2724 14.228 52.4524 13.876 52.6924 13.564C52.9324 13.244 53.2324 12.992 53.5924 12.808C53.9524 12.616 54.3724 12.52 54.8524 12.52ZM55.0444 13.492C54.6204 13.492 54.2644 13.608 53.9764 13.84C53.6884 14.064 53.4724 14.352 53.3284 14.704C53.1924 15.056 53.1244 15.428 53.1244 15.82C53.1244 16.204 53.1924 16.576 53.3284 16.936C53.4724 17.288 53.6884 17.58 53.9764 17.812C54.2644 18.036 54.6204 18.148 55.0444 18.148C55.4684 18.148 55.8204 18.036 56.1004 17.812C56.3884 17.58 56.6004 17.288 56.7364 16.936C56.8804 16.576 56.9524 16.204 56.9524 15.82C56.9524 15.428 56.8804 15.056 56.7364 14.704C56.6004 14.352 56.3884 14.064 56.1004 13.84C55.8204 13.608 55.4684 13.492 55.0444 13.492ZM62.1253 19.12C61.4693 19.12 60.9733 18.952 60.6373 18.616C60.3093 18.28 60.1453 17.808 60.1453 17.2V13.576H59.0053V12.64H60.1453V11.044H61.2853V12.64H62.8333V13.576H61.2853V17.2C61.2853 17.52 61.3733 17.756 61.5493 17.908C61.7253 18.052 61.9813 18.124 62.3173 18.124C62.4933 18.124 62.6613 18.112 62.8213 18.088C62.9813 18.064 63.0613 18.052 63.0613 18.052V19.024C63.0613 19.024 62.9693 19.04 62.7853 19.072C62.6013 19.104 62.3813 19.12 62.1253 19.12ZM67.0837 19.12C66.5637 19.12 66.1117 19.028 65.7277 18.844C65.3517 18.652 65.0397 18.396 64.7917 18.076C64.5517 17.756 64.3717 17.404 64.2517 17.02C64.1317 16.628 64.0717 16.228 64.0717 15.82C64.0717 15.42 64.1277 15.024 64.2397 14.632C64.3597 14.24 64.5397 13.884 64.7797 13.564C65.0277 13.244 65.3357 12.992 65.7037 12.808C66.0797 12.616 66.5237 12.52 67.0357 12.52C67.5797 12.52 68.0597 12.644 68.4757 12.892C68.8917 13.14 69.2197 13.508 69.4597 13.996C69.6997 14.484 69.8197 15.096 69.8197 15.832V16.168H65.2237C65.2477 16.528 65.3317 16.86 65.4757 17.164C65.6277 17.46 65.8397 17.7 66.1117 17.884C66.3837 18.06 66.7077 18.148 67.0837 18.148C67.4117 18.148 67.6757 18.096 67.8757 17.992C68.0837 17.88 68.2477 17.752 68.3677 17.608C68.4877 17.464 68.5677 17.34 68.6077 17.236C68.6557 17.124 68.6797 17.068 68.6797 17.068H69.7477C69.7477 17.068 69.7277 17.14 69.6877 17.284C69.6477 17.42 69.5757 17.588 69.4717 17.788C69.3677 17.988 69.2157 18.192 69.0157 18.4C68.8157 18.6 68.5597 18.772 68.2477 18.916C67.9357 19.052 67.5477 19.12 67.0837 19.12ZM65.2357 15.28H68.7037C68.6877 14.864 68.5997 14.528 68.4397 14.272C68.2797 14.008 68.0757 13.812 67.8277 13.684C67.5797 13.556 67.3157 13.492 67.0357 13.492C66.5317 13.492 66.1197 13.656 65.7997 13.984C65.4797 14.304 65.2917 14.736 65.2357 15.28ZM73.9447 19.12C73.4647 19.12 73.0447 19.028 72.6847 18.844C72.3247 18.652 72.0247 18.4 71.7847 18.088C71.5447 17.768 71.3647 17.412 71.2447 17.02C71.1247 16.628 71.0647 16.228 71.0647 15.82C71.0647 15.412 71.1247 15.012 71.2447 14.62C71.3647 14.228 71.5447 13.876 71.7847 13.564C72.0247 13.244 72.3247 12.992 72.6847 12.808C73.0447 12.616 73.4647 12.52 73.9447 12.52C74.3447 12.52 74.6807 12.584 74.9527 12.712C75.2247 12.84 75.4447 12.992 75.6127 13.168C75.7807 13.336 75.9087 13.496 75.9967 13.648H76.0687V9.88H77.2087V19H76.0687V17.992H75.9967C75.9087 18.144 75.7807 18.308 75.6127 18.484C75.4447 18.66 75.2247 18.812 74.9527 18.94C74.6807 19.06 74.3447 19.12 73.9447 19.12ZM74.1367 18.148C74.5607 18.148 74.9127 18.036 75.1927 17.812C75.4807 17.58 75.6927 17.288 75.8287 16.936C75.9727 16.576 76.0447 16.204 76.0447 15.82C76.0447 15.428 75.9727 15.056 75.8287 14.704C75.6927 14.352 75.4807 14.064 75.1927 13.84C74.9127 13.608 74.5607 13.492 74.1367 13.492C73.7127 13.492 73.3567 13.608 73.0687 13.84C72.7807 14.064 72.5647 14.352 72.4207 14.704C72.2847 15.056 72.2167 15.428 72.2167 15.82C72.2167 16.204 72.2847 16.576 72.4207 16.936C72.5647 17.288 72.7807 17.58 73.0687 17.812C73.3567 18.036 73.7127 18.148 74.1367 18.148Z" fill="#00D1FF"/>
<circle cx="18.5" cy="15.5" r="2.5" fill="#00D1FF"/>
</svg>
