<svg width="97" height="30" viewBox="0 0 97 30" fill="none" xmlns="http://www.w3.org/2000/svg">
<rect width="97" height="30" rx="5" fill="#163536"/>
<path d="M31.96 19V10.12H34.84C35.552 10.12 36.172 10.248 36.7 10.504C37.228 10.752 37.668 11.088 38.02 11.512C38.372 11.936 38.636 12.412 38.812 12.94C38.988 13.468 39.076 14.008 39.076 14.56C39.076 15.112 38.988 15.652 38.812 16.18C38.636 16.708 38.372 17.184 38.02 17.608C37.668 18.032 37.228 18.372 36.7 18.628C36.172 18.876 35.552 19 34.84 19H31.96ZM34.792 11.152H33.136V17.968H34.792C35.312 17.968 35.764 17.872 36.148 17.68C36.54 17.488 36.864 17.232 37.12 16.912C37.384 16.584 37.58 16.216 37.708 15.808C37.836 15.4 37.9 14.984 37.9 14.56C37.9 14.136 37.836 13.72 37.708 13.312C37.58 12.904 37.384 12.54 37.12 12.22C36.864 11.892 36.54 11.632 36.148 11.44C35.764 11.248 35.312 11.152 34.792 11.152ZM43.4505 19.12C42.7705 19.12 42.1985 18.964 41.7345 18.652C41.2705 18.332 40.9185 17.92 40.6785 17.416C40.4385 16.912 40.3185 16.38 40.3185 15.82C40.3185 15.252 40.4385 14.72 40.6785 14.224C40.9185 13.72 41.2705 13.312 41.7345 13C42.1985 12.68 42.7705 12.52 43.4505 12.52C44.1305 12.52 44.7025 12.68 45.1665 13C45.6305 13.312 45.9825 13.72 46.2225 14.224C46.4625 14.72 46.5825 15.252 46.5825 15.82C46.5825 16.38 46.4625 16.912 46.2225 17.416C45.9825 17.92 45.6305 18.332 45.1665 18.652C44.7025 18.964 44.1305 19.12 43.4505 19.12ZM43.4505 18.124C43.8825 18.124 44.2425 18.016 44.5305 17.8C44.8265 17.576 45.0465 17.288 45.1905 16.936C45.3425 16.584 45.4185 16.212 45.4185 15.82C45.4185 15.42 45.3425 15.048 45.1905 14.704C45.0465 14.352 44.8265 14.068 44.5305 13.852C44.2425 13.628 43.8825 13.516 43.4505 13.516C43.0265 13.516 42.6665 13.628 42.3705 13.852C42.0745 14.068 41.8505 14.352 41.6985 14.704C41.5545 15.048 41.4825 15.42 41.4825 15.82C41.4825 16.212 41.5545 16.584 41.6985 16.936C41.8505 17.288 42.0745 17.576 42.3705 17.8C42.6665 18.016 43.0265 18.124 43.4505 18.124ZM48.0057 19V12.64H49.1457V13.564H49.2177C49.2737 13.468 49.3657 13.336 49.4937 13.168C49.6297 13 49.8217 12.852 50.0697 12.724C50.3177 12.588 50.6297 12.52 51.0057 12.52C51.4697 12.52 51.8657 12.628 52.1937 12.844C52.5217 13.052 52.7697 13.336 52.9377 13.696C53.1137 14.056 53.2017 14.46 53.2017 14.908V19H52.0617V14.98C52.0617 14.556 51.9417 14.204 51.7017 13.924C51.4697 13.644 51.1297 13.504 50.6817 13.504C50.3217 13.504 50.0297 13.596 49.8057 13.78C49.5817 13.956 49.4137 14.192 49.3017 14.488C49.1977 14.776 49.1457 15.084 49.1457 15.412V19H48.0057ZM57.6446 19.12C57.1246 19.12 56.6726 19.028 56.2886 18.844C55.9126 18.652 55.6006 18.396 55.3526 18.076C55.1126 17.756 54.9326 17.404 54.8126 17.02C54.6926 16.628 54.6326 16.228 54.6326 15.82C54.6326 15.42 54.6886 15.024 54.8006 14.632C54.9206 14.24 55.1006 13.884 55.3406 13.564C55.5886 13.244 55.8966 12.992 56.2646 12.808C56.6406 12.616 57.0846 12.52 57.5966 12.52C58.1406 12.52 58.6206 12.644 59.0366 12.892C59.4526 13.14 59.7806 13.508 60.0206 13.996C60.2606 14.484 60.3806 15.096 60.3806 15.832V16.168H55.7846C55.8086 16.528 55.8926 16.86 56.0366 17.164C56.1886 17.46 56.4006 17.7 56.6726 17.884C56.9446 18.06 57.2686 18.148 57.6446 18.148C57.9726 18.148 58.2366 18.096 58.4366 17.992C58.6446 17.88 58.8086 17.752 58.9286 17.608C59.0486 17.464 59.1286 17.34 59.1686 17.236C59.2166 17.124 59.2406 17.068 59.2406 17.068H60.3086C60.3086 17.068 60.2886 17.14 60.2486 17.284C60.2086 17.42 60.1366 17.588 60.0326 17.788C59.9286 17.988 59.7766 18.192 59.5766 18.4C59.3766 18.6 59.1206 18.772 58.8086 18.916C58.4966 19.052 58.1086 19.12 57.6446 19.12ZM55.7966 15.28H59.2646C59.2486 14.864 59.1606 14.528 59.0006 14.272C58.8406 14.008 58.6366 13.812 58.3886 13.684C58.1406 13.556 57.8766 13.492 57.5966 13.492C57.0926 13.492 56.6806 13.656 56.3606 13.984C56.0406 14.304 55.8526 14.736 55.7966 15.28Z" fill="#00FF90"/>
<circle cx="18.5" cy="15.5" r="2.5" fill="#00FF90"/>
</svg>
