<svg width="97" height="30" viewBox="0 0 97 30" fill="none" xmlns="http://www.w3.org/2000/svg">
<rect width="97" height="30" rx="5" fill="#1F2A3E"/>
<path d="M31.96 19V10.12H37.6V11.152H33.136V13.96H37.048V14.992H33.136V17.968H37.66V19H31.96ZM38.8014 19L40.8774 15.832L38.7894 12.64H40.0254L41.6574 15.16L43.3014 12.64H44.5374L42.4134 15.832L44.5254 19H43.2894L41.6574 16.492L40.0374 19H38.8014ZM45.8405 21.352V12.64H46.9805V13.648H47.0525C47.1485 13.496 47.2765 13.332 47.4365 13.156C47.6045 12.98 47.8245 12.832 48.0965 12.712C48.3685 12.584 48.7045 12.52 49.1045 12.52C49.5845 12.52 50.0045 12.616 50.3645 12.808C50.7245 12.992 51.0245 13.244 51.2645 13.564C51.5045 13.876 51.6845 14.228 51.8045 14.62C51.9245 15.012 51.9845 15.412 51.9845 15.82C51.9845 16.228 51.9245 16.628 51.8045 17.02C51.6845 17.412 51.5045 17.768 51.2645 18.088C51.0245 18.4 50.7245 18.652 50.3645 18.844C50.0045 19.028 49.5845 19.12 49.1045 19.12C48.7045 19.12 48.3685 19.056 48.0965 18.928C47.8245 18.8 47.6045 18.648 47.4365 18.472C47.2765 18.296 47.1485 18.136 47.0525 17.992H46.9805V21.352H45.8405ZM47.0045 15.82C47.0045 16.204 47.0725 16.576 47.2085 16.936C47.3525 17.288 47.5645 17.58 47.8445 17.812C48.1325 18.036 48.4885 18.148 48.9125 18.148C49.3445 18.148 49.7005 18.036 49.9805 17.812C50.2685 17.58 50.4805 17.288 50.6165 16.936C50.7605 16.576 50.8325 16.204 50.8325 15.82C50.8325 15.428 50.7605 15.056 50.6165 14.704C50.4805 14.352 50.2685 14.064 49.9805 13.84C49.7005 13.608 49.3445 13.492 48.9125 13.492C48.4885 13.492 48.1325 13.608 47.8445 13.84C47.5645 14.064 47.3525 14.352 47.2085 14.704C47.0725 15.056 47.0045 15.428 47.0045 15.82ZM56.2501 19.12C55.7301 19.12 55.2781 19.028 54.8941 18.844C54.5181 18.652 54.2061 18.396 53.9581 18.076C53.7181 17.756 53.5381 17.404 53.4181 17.02C53.2981 16.628 53.2381 16.228 53.2381 15.82C53.2381 15.42 53.2941 15.024 53.4061 14.632C53.5261 14.24 53.7061 13.884 53.9461 13.564C54.1941 13.244 54.5021 12.992 54.8701 12.808C55.2461 12.616 55.6901 12.52 56.2021 12.52C56.7461 12.52 57.2261 12.644 57.6421 12.892C58.0581 13.14 58.3861 13.508 58.6261 13.996C58.8661 14.484 58.9861 15.096 58.9861 15.832V16.168H54.3901C54.4141 16.528 54.4981 16.86 54.6421 17.164C54.7941 17.46 55.0061 17.7 55.2781 17.884C55.5501 18.06 55.8741 18.148 56.2501 18.148C56.5781 18.148 56.8421 18.096 57.0421 17.992C57.2501 17.88 57.4141 17.752 57.5341 17.608C57.6541 17.464 57.7341 17.34 57.7741 17.236C57.8221 17.124 57.8461 17.068 57.8461 17.068H58.9141C58.9141 17.068 58.8941 17.14 58.8541 17.284C58.8141 17.42 58.7421 17.588 58.6381 17.788C58.5341 17.988 58.3821 18.192 58.1821 18.4C57.9821 18.6 57.7261 18.772 57.4141 18.916C57.1021 19.052 56.7141 19.12 56.2501 19.12ZM54.4021 15.28H57.8701C57.8541 14.864 57.7661 14.528 57.6061 14.272C57.4461 14.008 57.2421 13.812 56.9941 13.684C56.7461 13.556 56.4821 13.492 56.2021 13.492C55.6981 13.492 55.2861 13.656 54.9661 13.984C54.6461 14.304 54.4581 14.736 54.4021 15.28ZM60.4097 19V12.64H61.5497V13.432H61.5977C61.7337 13.192 61.9337 12.98 62.1977 12.796C62.4617 12.612 62.8337 12.52 63.3137 12.52C63.4497 12.52 63.5737 12.528 63.6857 12.544C63.7977 12.552 63.8537 12.556 63.8537 12.556V13.648C63.8537 13.648 63.7897 13.644 63.6617 13.636C63.5417 13.62 63.4137 13.612 63.2777 13.612C62.7257 13.612 62.2977 13.772 61.9937 14.092C61.6977 14.404 61.5497 14.916 61.5497 15.628V19H60.4097ZM67.6769 19.12C67.0209 19.12 66.5249 18.952 66.1889 18.616C65.8609 18.28 65.6969 17.808 65.6969 17.2V13.576H64.5569V12.64H65.6969V11.044H66.8369V12.64H68.3849V13.576H66.8369V17.2C66.8369 17.52 66.9249 17.756 67.1009 17.908C67.2769 18.052 67.5329 18.124 67.8689 18.124C68.0449 18.124 68.2129 18.112 68.3729 18.088C68.5329 18.064 68.6129 18.052 68.6129 18.052V19.024C68.6129 19.024 68.5209 19.04 68.3369 19.072C68.1529 19.104 67.9329 19.12 67.6769 19.12Z" fill="white"/>
<circle cx="18.5" cy="15.5" r="2.5" fill="white"/>
</svg>
