<svg version="1.1" id="Layer_1" xmlns="http://www.w3.org/2000/svg" xmlns:xlink="http://www.w3.org/1999/xlink" x="0px" y="0px" viewBox="0 0 512 512" style="enable-background:new 0 0 512 512;" xml:space="preserve"><path style="fill:#FF0F47;" d="M511.519,240.502C503.505,106.336,392.18,0,256,0C114.616,0,0,114.615,0,256 c0,118.154,80.052,217.593,188.871,247.088L511.519,240.502z"></path><path style="fill:#C20035;" d="M512,256c0-5.206-0.174-10.369-0.48-15.498L338.639,67.622L205.913,294.957L256,345.043 L89.333,403.549l99.538,99.538C210.267,508.887,232.769,512,256,512C397.385,512,512,397.384,512,256z"></path><path style="fill:#111449;" d="M422.667,403.549c-16.979-19.174-37.208-35.408-59.815-47.83l-30.049,47.651l30.605,47.651 C385.799,438.66,405.83,422.554,422.667,403.549z"></path><path style="fill:#27467A;" d="M179.197,403.526l-30.049-47.806c-22.607,12.422-42.835,28.655-59.815,47.83 c16.977,19.163,37.203,35.38,59.821,47.782L179.197,403.526z"></path><path style="fill:#D0FBFD;" d="M290.29,331.004l-87.716,32.962L256,478.609c38.724,0,75.134-9.895,106.852-27.284V355.72 C340.679,343.536,316.215,335.031,290.29,331.004z"></path><path style="fill:#FFFFFF;" d="M221.71,331.004c-25.925,4.028-50.389,12.533-72.563,24.717v95.605 c31.718,17.388,68.128,27.283,106.852,27.283V363.965L221.71,331.004z"></path><path style="fill:#FF0F47;" d="M272.696,352.835l17.594-21.831c-11.181-1.737-22.629-2.656-34.29-2.656l-8.904,111.304L256,478.609 l31.165-31.165L272.696,352.835z"></path><path style="fill:#FF6176;" d="M221.71,331.004l17.594,21.831l-14.47,94.609L256,478.609V328.348 C244.34,328.348,232.891,329.266,221.71,331.004z"></path><path style="fill:#FFBE35;" d="M256,33.391l-13.749,252.294l65.301-30.533c38.687-19.05,65.318-58.853,65.318-104.891 C372.87,85.715,320.545,33.391,256,33.391z"></path><path style="fill:#FFDB8A;" d="M139.13,150.261c0,46.038,26.631,85.841,65.318,104.892L256,285.685V33.391 C191.455,33.391,139.13,85.715,139.13,150.261z"></path><polygon style="fill:#FFFFFF;" points="306.234,164.542 290.492,148.801 256,183.293 221.305,148.598 205.564,164.34 244.87,203.645 244.87,267.13 267.13,267.13 267.13,203.645 "></polygon><polygon style="fill:#5195AF;" points="309.512,272.696 244.87,261.565 256,294.957 306.087,294.957 "></polygon><g><polygon style="fill:#88ACB5;" points="202.488,272.696 205.913,294.957 256,294.957 256,272.696 "></polygon><polygon style="fill:#88ACB5;" points="316.19,250.435 256,250.435 244.87,261.565 256,272.696 316.19,272.696 "></polygon></g><rect x="195.807" y="250.435" style="fill:#B7D9DD;" width="60.193" height="22.261"></rect><path style="fill:#27467A;" d="M116.87,428.522C116.865,428.101,116.87,428.944,116.87,428.522L116.87,428.522z"></path></svg>