<svg width="650" height="650" viewBox="0 0 650 650" fill="none" xmlns="http://www.w3.org/2000/svg">
<g clip-path="url(#clip0_23_10)">
<rect width="650" height="650" rx="325" fill="white"/>
<path d="M190 186H990V986H190V186Z" fill="white" fill-opacity="0.82"/>
<path fill-rule="evenodd" clip-rule="evenodd" d="M213.998 561.746C249.61 577.981 289.406 587.059 331.396 587.059C483.494 587.059 606.793 467.953 606.793 321.029C606.793 320.028 606.787 319.028 606.776 318.029L565.63 343.56C553.892 456.785 454.644 547.059 331.396 547.059C305.12 547.059 279.935 542.955 256.455 535.401L213.998 561.746ZM405.149 106.279C382.009 98.9662 357.23 95 331.396 95C208.583 95 109.601 184.639 97.2899 297.303L56.0068 322.919C56.0023 322.29 56 321.66 56 321.029C56 174.105 179.299 55 331.396 55C372.979 55 412.409 63.9023 447.755 79.8417L405.149 106.279Z" fill="#94002D"/>
<path fill-rule="evenodd" clip-rule="evenodd" d="M476.031 421.371C427.638 487.163 334.769 511.035 257.047 472.435C235.829 461.897 217.875 447.763 203.537 431.229L160.44 432.789C179.549 461.813 206.649 486.468 240.603 503.331C341.463 553.423 465.018 515.997 518.406 419.837L476.031 421.371ZM148.262 238.478L189.242 236.995C235.706 164.926 333.055 137.387 413.981 177.579C438.51 189.761 458.678 206.749 473.938 226.695L515.567 225.189C496.316 192.715 467.444 165.068 430.425 146.683C328.472 96.0478 203.329 134.838 150.911 233.324C150 235.035 149.117 236.753 148.262 238.478Z" fill="#AB2B52" fill-opacity="0.73"/>
<path d="M173.344 311.594C173.344 313.969 172.891 316.062 171.984 317.875C171.109 319.688 169.859 321.203 168.234 322.422C166.609 323.641 164.688 324.547 162.469 325.141C160.25 325.766 157.844 326.078 155.25 326.078C153.688 326.078 152.188 325.953 150.75 325.703C149.344 325.484 148.078 325.203 146.953 324.859C145.828 324.484 144.891 324.109 144.141 323.734C143.391 323.359 142.844 323.016 142.5 322.703C142.156 322.359 141.891 321.844 141.703 321.156C141.516 320.438 141.422 319.391 141.422 318.016C141.422 317.109 141.453 316.391 141.516 315.859C141.578 315.297 141.672 314.859 141.797 314.547C141.922 314.203 142.078 313.984 142.266 313.891C142.453 313.766 142.688 313.703 142.969 313.703C143.312 313.703 143.812 313.906 144.469 314.312C145.156 314.688 146 315.109 147 315.578C148 316.047 149.156 316.484 150.469 316.891C151.812 317.297 153.328 317.5 155.016 317.5C156.078 317.5 157.016 317.391 157.828 317.172C158.672 316.953 159.391 316.641 159.984 316.234C160.609 315.828 161.078 315.312 161.391 314.688C161.703 314.062 161.859 313.344 161.859 312.531C161.859 311.594 161.562 310.797 160.969 310.141C160.406 309.453 159.641 308.859 158.672 308.359C157.734 307.859 156.656 307.391 155.438 306.953C154.25 306.516 153.016 306.031 151.734 305.5C150.484 304.969 149.25 304.359 148.031 303.672C146.844 302.984 145.766 302.141 144.797 301.141C143.859 300.141 143.094 298.938 142.5 297.531C141.938 296.125 141.656 294.438 141.656 292.469C141.656 290.469 142.047 288.641 142.828 286.984C143.609 285.297 144.734 283.859 146.203 282.672C147.672 281.484 149.453 280.562 151.547 279.906C153.672 279.25 156.047 278.922 158.672 278.922C159.984 278.922 161.25 279.016 162.469 279.203C163.719 279.391 164.844 279.625 165.844 279.906C166.844 280.188 167.688 280.5 168.375 280.844C169.062 281.156 169.547 281.438 169.828 281.688C170.141 281.906 170.359 282.141 170.484 282.391C170.609 282.609 170.703 282.891 170.766 283.234C170.828 283.547 170.875 283.953 170.906 284.453C170.969 284.922 171 285.516 171 286.234C171 287.078 170.969 287.766 170.906 288.297C170.875 288.828 170.797 289.25 170.672 289.562C170.578 289.875 170.438 290.094 170.25 290.219C170.062 290.312 169.844 290.359 169.594 290.359C169.312 290.359 168.875 290.203 168.281 289.891C167.688 289.547 166.938 289.188 166.031 288.812C165.156 288.438 164.125 288.094 162.938 287.781C161.781 287.438 160.453 287.266 158.953 287.266C157.891 287.266 156.969 287.375 156.188 287.594C155.406 287.812 154.766 288.125 154.266 288.531C153.766 288.938 153.391 289.422 153.141 289.984C152.891 290.516 152.766 291.094 152.766 291.719C152.766 292.688 153.062 293.5 153.656 294.156C154.25 294.812 155.031 295.391 156 295.891C156.969 296.391 158.062 296.859 159.281 297.297C160.531 297.734 161.781 298.219 163.031 298.75C164.312 299.25 165.562 299.844 166.781 300.531C168.031 301.219 169.141 302.062 170.109 303.062C171.078 304.062 171.859 305.266 172.453 306.672C173.047 308.047 173.344 309.688 173.344 311.594ZM205.875 319.281C205.875 320.656 205.781 321.719 205.594 322.469C205.438 323.188 205.219 323.703 204.938 324.016C204.656 324.297 204.234 324.562 203.672 324.812C203.141 325.031 202.5 325.219 201.75 325.375C201.031 325.562 200.234 325.703 199.359 325.797C198.516 325.891 197.656 325.938 196.781 325.938C194.438 325.938 192.406 325.641 190.688 325.047C188.969 324.453 187.547 323.547 186.422 322.328C185.297 321.078 184.469 319.516 183.938 317.641C183.406 315.766 183.141 313.547 183.141 310.984V289.562H178.125C177.531 289.562 177.078 289.203 176.766 288.484C176.453 287.734 176.297 286.5 176.297 284.781C176.297 283.875 176.328 283.109 176.391 282.484C176.484 281.859 176.609 281.375 176.766 281.031C176.922 280.656 177.109 280.391 177.328 280.234C177.578 280.078 177.859 280 178.172 280H183.141V270.672C183.141 270.359 183.219 270.078 183.375 269.828C183.562 269.578 183.875 269.375 184.312 269.219C184.781 269.031 185.391 268.906 186.141 268.844C186.922 268.75 187.875 268.703 189 268.703C190.156 268.703 191.109 268.75 191.859 268.844C192.641 268.906 193.25 269.031 193.688 269.219C194.125 269.375 194.438 269.578 194.625 269.828C194.812 270.078 194.906 270.359 194.906 270.672V280H204C204.312 280 204.578 280.078 204.797 280.234C205.047 280.391 205.25 280.656 205.406 281.031C205.562 281.375 205.672 281.859 205.734 282.484C205.828 283.109 205.875 283.875 205.875 284.781C205.875 286.5 205.719 287.734 205.406 288.484C205.094 289.203 204.641 289.562 204.047 289.562H194.906V309.203C194.906 311.484 195.266 313.203 195.984 314.359C196.703 315.484 197.984 316.047 199.828 316.047C200.453 316.047 201.016 316 201.516 315.906C202.016 315.781 202.453 315.656 202.828 315.531C203.234 315.375 203.562 315.25 203.812 315.156C204.094 315.031 204.344 314.969 204.562 314.969C204.75 314.969 204.922 315.031 205.078 315.156C205.266 315.25 205.406 315.469 205.5 315.812C205.594 316.125 205.672 316.562 205.734 317.125C205.828 317.688 205.875 318.406 205.875 319.281ZM249.094 323.547C249.094 323.984 248.938 324.328 248.625 324.578C248.312 324.828 247.812 325 247.125 325.094C246.469 325.219 245.484 325.281 244.172 325.281C242.766 325.281 241.734 325.219 241.078 325.094C240.453 325 240 324.828 239.719 324.578C239.469 324.328 239.344 323.984 239.344 323.547V320.219C237.625 322.062 235.656 323.5 233.438 324.531C231.25 325.562 228.812 326.078 226.125 326.078C223.906 326.078 221.859 325.781 219.984 325.188C218.141 324.625 216.531 323.781 215.156 322.656C213.812 321.5 212.766 320.078 212.016 318.391C211.266 316.703 210.891 314.734 210.891 312.484C210.891 310.047 211.359 307.938 212.297 306.156C213.266 304.344 214.688 302.859 216.562 301.703C218.469 300.516 220.828 299.641 223.641 299.078C226.453 298.516 229.719 298.234 233.438 298.234H237.516V295.703C237.516 294.391 237.375 293.25 237.094 292.281C236.844 291.281 236.406 290.453 235.781 289.797C235.188 289.141 234.375 288.656 233.344 288.344C232.344 288.031 231.094 287.875 229.594 287.875C227.625 287.875 225.859 288.094 224.297 288.531C222.766 288.969 221.406 289.453 220.219 289.984C219.031 290.516 218.031 291 217.219 291.438C216.438 291.875 215.797 292.094 215.297 292.094C214.953 292.094 214.641 291.984 214.359 291.766C214.109 291.547 213.891 291.234 213.703 290.828C213.547 290.422 213.422 289.922 213.328 289.328C213.234 288.734 213.188 288.078 213.188 287.359C213.188 286.391 213.266 285.625 213.422 285.062C213.578 284.5 213.875 284 214.312 283.562C214.75 283.094 215.516 282.594 216.609 282.062C217.703 281.5 218.984 280.984 220.453 280.516C221.922 280.047 223.516 279.672 225.234 279.391C226.984 279.078 228.781 278.922 230.625 278.922C233.906 278.922 236.703 279.25 239.016 279.906C241.359 280.531 243.281 281.516 244.781 282.859C246.281 284.172 247.375 285.875 248.062 287.969C248.75 290.062 249.094 292.547 249.094 295.422V323.547ZM237.516 305.641H233.016C231.109 305.641 229.484 305.781 228.141 306.062C226.797 306.344 225.703 306.766 224.859 307.328C224.016 307.891 223.391 308.578 222.984 309.391C222.609 310.172 222.422 311.078 222.422 312.109C222.422 313.859 222.969 315.234 224.062 316.234C225.188 317.234 226.734 317.734 228.703 317.734C230.359 317.734 231.875 317.312 233.25 316.469C234.656 315.625 236.078 314.391 237.516 312.766V305.641ZM287.766 285.484C287.766 286.609 287.734 287.531 287.672 288.25C287.609 288.969 287.516 289.531 287.391 289.938C287.266 290.344 287.094 290.625 286.875 290.781C286.688 290.938 286.438 291.016 286.125 291.016C285.875 291.016 285.594 290.969 285.281 290.875C284.969 290.75 284.609 290.625 284.203 290.5C283.828 290.375 283.406 290.266 282.938 290.172C282.469 290.047 281.953 289.984 281.391 289.984C280.734 289.984 280.078 290.125 279.422 290.406C278.766 290.656 278.078 291.062 277.359 291.625C276.672 292.188 275.938 292.938 275.156 293.875C274.406 294.812 273.594 295.969 272.719 297.344V323.406C272.719 323.719 272.625 324 272.438 324.25C272.25 324.469 271.922 324.656 271.453 324.812C271.016 324.969 270.422 325.078 269.672 325.141C268.922 325.234 267.969 325.281 266.812 325.281C265.656 325.281 264.703 325.234 263.953 325.141C263.203 325.078 262.594 324.969 262.125 324.812C261.688 324.656 261.375 324.469 261.188 324.25C261 324 260.906 323.719 260.906 323.406V281.594C260.906 281.281 260.984 281.016 261.141 280.797C261.297 280.547 261.578 280.344 261.984 280.188C262.391 280.031 262.906 279.922 263.531 279.859C264.188 279.766 265 279.719 265.969 279.719C266.969 279.719 267.797 279.766 268.453 279.859C269.109 279.922 269.609 280.031 269.953 280.188C270.328 280.344 270.594 280.547 270.75 280.797C270.906 281.016 270.984 281.281 270.984 281.594V286.797C272.078 285.234 273.109 283.953 274.078 282.953C275.047 281.922 275.969 281.109 276.844 280.516C277.719 279.922 278.594 279.516 279.469 279.297C280.344 279.047 281.219 278.922 282.094 278.922C282.5 278.922 282.938 278.953 283.406 279.016C283.875 279.047 284.359 279.125 284.859 279.25C285.359 279.344 285.797 279.469 286.172 279.625C286.547 279.75 286.812 279.891 286.969 280.047C287.156 280.203 287.281 280.375 287.344 280.562C287.438 280.75 287.516 281.016 287.578 281.359C287.641 281.672 287.688 282.156 287.719 282.812C287.75 283.469 287.766 284.359 287.766 285.484ZM319.781 319.281C319.781 320.656 319.688 321.719 319.5 322.469C319.344 323.188 319.125 323.703 318.844 324.016C318.562 324.297 318.141 324.562 317.578 324.812C317.047 325.031 316.406 325.219 315.656 325.375C314.938 325.562 314.141 325.703 313.266 325.797C312.422 325.891 311.562 325.938 310.688 325.938C308.344 325.938 306.312 325.641 304.594 325.047C302.875 324.453 301.453 323.547 300.328 322.328C299.203 321.078 298.375 319.516 297.844 317.641C297.312 315.766 297.047 313.547 297.047 310.984V289.562H292.031C291.438 289.562 290.984 289.203 290.672 288.484C290.359 287.734 290.203 286.5 290.203 284.781C290.203 283.875 290.234 283.109 290.297 282.484C290.391 281.859 290.516 281.375 290.672 281.031C290.828 280.656 291.016 280.391 291.234 280.234C291.484 280.078 291.766 280 292.078 280H297.047V270.672C297.047 270.359 297.125 270.078 297.281 269.828C297.469 269.578 297.781 269.375 298.219 269.219C298.688 269.031 299.297 268.906 300.047 268.844C300.828 268.75 301.781 268.703 302.906 268.703C304.062 268.703 305.016 268.75 305.766 268.844C306.547 268.906 307.156 269.031 307.594 269.219C308.031 269.375 308.344 269.578 308.531 269.828C308.719 270.078 308.812 270.359 308.812 270.672V280H317.906C318.219 280 318.484 280.078 318.703 280.234C318.953 280.391 319.156 280.656 319.312 281.031C319.469 281.375 319.578 281.859 319.641 282.484C319.734 283.109 319.781 283.875 319.781 284.781C319.781 286.5 319.625 287.734 319.312 288.484C319 289.203 318.547 289.562 317.953 289.562H308.812V309.203C308.812 311.484 309.172 313.203 309.891 314.359C310.609 315.484 311.891 316.047 313.734 316.047C314.359 316.047 314.922 316 315.422 315.906C315.922 315.781 316.359 315.656 316.734 315.531C317.141 315.375 317.469 315.25 317.719 315.156C318 315.031 318.25 314.969 318.469 314.969C318.656 314.969 318.828 315.031 318.984 315.156C319.172 315.25 319.312 315.469 319.406 315.812C319.5 316.125 319.578 316.562 319.641 317.125C319.734 317.688 319.781 318.406 319.781 319.281Z" fill="black"/>
<path d="M324.344 394.594C324.344 396.969 323.891 399.062 322.984 400.875C322.109 402.688 320.859 404.203 319.234 405.422C317.609 406.641 315.688 407.547 313.469 408.141C311.25 408.766 308.844 409.078 306.25 409.078C304.688 409.078 303.188 408.953 301.75 408.703C300.344 408.484 299.078 408.203 297.953 407.859C296.828 407.484 295.891 407.109 295.141 406.734C294.391 406.359 293.844 406.016 293.5 405.703C293.156 405.359 292.891 404.844 292.703 404.156C292.516 403.438 292.422 402.391 292.422 401.016C292.422 400.109 292.453 399.391 292.516 398.859C292.578 398.297 292.672 397.859 292.797 397.547C292.922 397.203 293.078 396.984 293.266 396.891C293.453 396.766 293.688 396.703 293.969 396.703C294.312 396.703 294.812 396.906 295.469 397.312C296.156 397.688 297 398.109 298 398.578C299 399.047 300.156 399.484 301.469 399.891C302.812 400.297 304.328 400.5 306.016 400.5C307.078 400.5 308.016 400.391 308.828 400.172C309.672 399.953 310.391 399.641 310.984 399.234C311.609 398.828 312.078 398.312 312.391 397.688C312.703 397.062 312.859 396.344 312.859 395.531C312.859 394.594 312.562 393.797 311.969 393.141C311.406 392.453 310.641 391.859 309.672 391.359C308.734 390.859 307.656 390.391 306.438 389.953C305.25 389.516 304.016 389.031 302.734 388.5C301.484 387.969 300.25 387.359 299.031 386.672C297.844 385.984 296.766 385.141 295.797 384.141C294.859 383.141 294.094 381.938 293.5 380.531C292.938 379.125 292.656 377.438 292.656 375.469C292.656 373.469 293.047 371.641 293.828 369.984C294.609 368.297 295.734 366.859 297.203 365.672C298.672 364.484 300.453 363.562 302.547 362.906C304.672 362.25 307.047 361.922 309.672 361.922C310.984 361.922 312.25 362.016 313.469 362.203C314.719 362.391 315.844 362.625 316.844 362.906C317.844 363.188 318.688 363.5 319.375 363.844C320.062 364.156 320.547 364.438 320.828 364.688C321.141 364.906 321.359 365.141 321.484 365.391C321.609 365.609 321.703 365.891 321.766 366.234C321.828 366.547 321.875 366.953 321.906 367.453C321.969 367.922 322 368.516 322 369.234C322 370.078 321.969 370.766 321.906 371.297C321.875 371.828 321.797 372.25 321.672 372.562C321.578 372.875 321.438 373.094 321.25 373.219C321.062 373.312 320.844 373.359 320.594 373.359C320.312 373.359 319.875 373.203 319.281 372.891C318.688 372.547 317.938 372.188 317.031 371.812C316.156 371.438 315.125 371.094 313.938 370.781C312.781 370.438 311.453 370.266 309.953 370.266C308.891 370.266 307.969 370.375 307.188 370.594C306.406 370.812 305.766 371.125 305.266 371.531C304.766 371.938 304.391 372.422 304.141 372.984C303.891 373.516 303.766 374.094 303.766 374.719C303.766 375.688 304.062 376.5 304.656 377.156C305.25 377.812 306.031 378.391 307 378.891C307.969 379.391 309.062 379.859 310.281 380.297C311.531 380.734 312.781 381.219 314.031 381.75C315.312 382.25 316.562 382.844 317.781 383.531C319.031 384.219 320.141 385.062 321.109 386.062C322.078 387.062 322.859 388.266 323.453 389.672C324.047 391.047 324.344 392.688 324.344 394.594ZM399.766 406.406C399.766 406.719 399.672 407 399.484 407.25C399.297 407.469 398.984 407.656 398.547 407.812C398.109 407.969 397.516 408.078 396.766 408.141C396.016 408.234 395.062 408.281 393.906 408.281C392.719 408.281 391.75 408.234 391 408.141C390.25 408.078 389.641 407.969 389.172 407.812C388.734 407.656 388.422 407.469 388.234 407.25C388.078 407 388 406.719 388 406.406V381.609C388 380.203 387.859 378.922 387.578 377.766C387.328 376.609 386.922 375.625 386.359 374.812C385.828 373.969 385.141 373.328 384.297 372.891C383.484 372.422 382.5 372.188 381.344 372.188C379.938 372.188 378.516 372.734 377.078 373.828C375.641 374.922 374.078 376.516 372.391 378.609V406.406C372.391 406.719 372.297 407 372.109 407.25C371.922 407.469 371.594 407.656 371.125 407.812C370.688 407.969 370.094 408.078 369.344 408.141C368.594 408.234 367.656 408.281 366.531 408.281C365.375 408.281 364.422 408.234 363.672 408.141C362.922 408.078 362.312 407.969 361.844 407.812C361.406 407.656 361.094 407.469 360.906 407.25C360.719 407 360.625 406.719 360.625 406.406V381.609C360.625 380.203 360.484 378.922 360.203 377.766C359.953 376.609 359.562 375.625 359.031 374.812C358.5 373.969 357.812 373.328 356.969 372.891C356.125 372.422 355.141 372.188 354.016 372.188C352.578 372.188 351.141 372.734 349.703 373.828C348.266 374.922 346.719 376.516 345.062 378.609V406.406C345.062 406.719 344.969 407 344.781 407.25C344.594 407.469 344.266 407.656 343.797 407.812C343.359 407.969 342.766 408.078 342.016 408.141C341.266 408.234 340.312 408.281 339.156 408.281C338 408.281 337.047 408.234 336.297 408.141C335.547 408.078 334.938 407.969 334.469 407.812C334.031 407.656 333.719 407.469 333.531 407.25C333.344 407 333.25 406.719 333.25 406.406V364.594C333.25 364.281 333.328 364.016 333.484 363.797C333.641 363.547 333.922 363.344 334.328 363.188C334.734 363.031 335.25 362.922 335.875 362.859C336.531 362.766 337.344 362.719 338.312 362.719C339.312 362.719 340.141 362.766 340.797 362.859C341.453 362.922 341.953 363.031 342.297 363.188C342.672 363.344 342.938 363.547 343.094 363.797C343.25 364.016 343.328 364.281 343.328 364.594V369.422C345.641 366.922 347.938 365.047 350.219 363.797C352.531 362.547 354.938 361.922 357.438 361.922C359.156 361.922 360.703 362.109 362.078 362.484C363.453 362.828 364.672 363.344 365.734 364.031C366.828 364.688 367.766 365.484 368.547 366.422C369.328 367.359 369.984 368.406 370.516 369.562C371.766 368.219 372.984 367.062 374.172 366.094C375.391 365.125 376.578 364.344 377.734 363.75C378.922 363.125 380.094 362.672 381.25 362.391C382.438 362.078 383.641 361.922 384.859 361.922C387.641 361.922 389.984 362.391 391.891 363.328C393.797 364.266 395.328 365.547 396.484 367.172C397.672 368.766 398.516 370.641 399.016 372.797C399.516 374.953 399.766 377.234 399.766 379.641V406.406ZM446.969 406.547C446.969 406.984 446.812 407.328 446.5 407.578C446.188 407.828 445.688 408 445 408.094C444.344 408.219 443.359 408.281 442.047 408.281C440.641 408.281 439.609 408.219 438.953 408.094C438.328 408 437.875 407.828 437.594 407.578C437.344 407.328 437.219 406.984 437.219 406.547V403.219C435.5 405.062 433.531 406.5 431.312 407.531C429.125 408.562 426.688 409.078 424 409.078C421.781 409.078 419.734 408.781 417.859 408.188C416.016 407.625 414.406 406.781 413.031 405.656C411.688 404.5 410.641 403.078 409.891 401.391C409.141 399.703 408.766 397.734 408.766 395.484C408.766 393.047 409.234 390.938 410.172 389.156C411.141 387.344 412.562 385.859 414.438 384.703C416.344 383.516 418.703 382.641 421.516 382.078C424.328 381.516 427.594 381.234 431.312 381.234H435.391V378.703C435.391 377.391 435.25 376.25 434.969 375.281C434.719 374.281 434.281 373.453 433.656 372.797C433.062 372.141 432.25 371.656 431.219 371.344C430.219 371.031 428.969 370.875 427.469 370.875C425.5 370.875 423.734 371.094 422.172 371.531C420.641 371.969 419.281 372.453 418.094 372.984C416.906 373.516 415.906 374 415.094 374.438C414.312 374.875 413.672 375.094 413.172 375.094C412.828 375.094 412.516 374.984 412.234 374.766C411.984 374.547 411.766 374.234 411.578 373.828C411.422 373.422 411.297 372.922 411.203 372.328C411.109 371.734 411.062 371.078 411.062 370.359C411.062 369.391 411.141 368.625 411.297 368.062C411.453 367.5 411.75 367 412.188 366.562C412.625 366.094 413.391 365.594 414.484 365.062C415.578 364.5 416.859 363.984 418.328 363.516C419.797 363.047 421.391 362.672 423.109 362.391C424.859 362.078 426.656 361.922 428.5 361.922C431.781 361.922 434.578 362.25 436.891 362.906C439.234 363.531 441.156 364.516 442.656 365.859C444.156 367.172 445.25 368.875 445.938 370.969C446.625 373.062 446.969 375.547 446.969 378.422V406.547ZM435.391 388.641H430.891C428.984 388.641 427.359 388.781 426.016 389.062C424.672 389.344 423.578 389.766 422.734 390.328C421.891 390.891 421.266 391.578 420.859 392.391C420.484 393.172 420.297 394.078 420.297 395.109C420.297 396.859 420.844 398.234 421.938 399.234C423.062 400.234 424.609 400.734 426.578 400.734C428.234 400.734 429.75 400.312 431.125 399.469C432.531 398.625 433.953 397.391 435.391 395.766V388.641ZM485.641 368.484C485.641 369.609 485.609 370.531 485.547 371.25C485.484 371.969 485.391 372.531 485.266 372.938C485.141 373.344 484.969 373.625 484.75 373.781C484.562 373.938 484.312 374.016 484 374.016C483.75 374.016 483.469 373.969 483.156 373.875C482.844 373.75 482.484 373.625 482.078 373.5C481.703 373.375 481.281 373.266 480.812 373.172C480.344 373.047 479.828 372.984 479.266 372.984C478.609 372.984 477.953 373.125 477.297 373.406C476.641 373.656 475.953 374.062 475.234 374.625C474.547 375.188 473.812 375.938 473.031 376.875C472.281 377.812 471.469 378.969 470.594 380.344V406.406C470.594 406.719 470.5 407 470.312 407.25C470.125 407.469 469.797 407.656 469.328 407.812C468.891 407.969 468.297 408.078 467.547 408.141C466.797 408.234 465.844 408.281 464.688 408.281C463.531 408.281 462.578 408.234 461.828 408.141C461.078 408.078 460.469 407.969 460 407.812C459.562 407.656 459.25 407.469 459.062 407.25C458.875 407 458.781 406.719 458.781 406.406V364.594C458.781 364.281 458.859 364.016 459.016 363.797C459.172 363.547 459.453 363.344 459.859 363.188C460.266 363.031 460.781 362.922 461.406 362.859C462.062 362.766 462.875 362.719 463.844 362.719C464.844 362.719 465.672 362.766 466.328 362.859C466.984 362.922 467.484 363.031 467.828 363.188C468.203 363.344 468.469 363.547 468.625 363.797C468.781 364.016 468.859 364.281 468.859 364.594V369.797C469.953 368.234 470.984 366.953 471.953 365.953C472.922 364.922 473.844 364.109 474.719 363.516C475.594 362.922 476.469 362.516 477.344 362.297C478.219 362.047 479.094 361.922 479.969 361.922C480.375 361.922 480.812 361.953 481.281 362.016C481.75 362.047 482.234 362.125 482.734 362.25C483.234 362.344 483.672 362.469 484.047 362.625C484.422 362.75 484.688 362.891 484.844 363.047C485.031 363.203 485.156 363.375 485.219 363.562C485.312 363.75 485.391 364.016 485.453 364.359C485.516 364.672 485.562 365.156 485.594 365.812C485.625 366.469 485.641 367.359 485.641 368.484ZM517.656 402.281C517.656 403.656 517.562 404.719 517.375 405.469C517.219 406.188 517 406.703 516.719 407.016C516.438 407.297 516.016 407.562 515.453 407.812C514.922 408.031 514.281 408.219 513.531 408.375C512.812 408.562 512.016 408.703 511.141 408.797C510.297 408.891 509.438 408.938 508.562 408.938C506.219 408.938 504.188 408.641 502.469 408.047C500.75 407.453 499.328 406.547 498.203 405.328C497.078 404.078 496.25 402.516 495.719 400.641C495.188 398.766 494.922 396.547 494.922 393.984V372.562H489.906C489.312 372.562 488.859 372.203 488.547 371.484C488.234 370.734 488.078 369.5 488.078 367.781C488.078 366.875 488.109 366.109 488.172 365.484C488.266 364.859 488.391 364.375 488.547 364.031C488.703 363.656 488.891 363.391 489.109 363.234C489.359 363.078 489.641 363 489.953 363H494.922V353.672C494.922 353.359 495 353.078 495.156 352.828C495.344 352.578 495.656 352.375 496.094 352.219C496.562 352.031 497.172 351.906 497.922 351.844C498.703 351.75 499.656 351.703 500.781 351.703C501.938 351.703 502.891 351.75 503.641 351.844C504.422 351.906 505.031 352.031 505.469 352.219C505.906 352.375 506.219 352.578 506.406 352.828C506.594 353.078 506.688 353.359 506.688 353.672V363H515.781C516.094 363 516.359 363.078 516.578 363.234C516.828 363.391 517.031 363.656 517.188 364.031C517.344 364.375 517.453 364.859 517.516 365.484C517.609 366.109 517.656 366.875 517.656 367.781C517.656 369.5 517.5 370.734 517.188 371.484C516.875 372.203 516.422 372.562 515.828 372.562H506.688V392.203C506.688 394.484 507.047 396.203 507.766 397.359C508.484 398.484 509.766 399.047 511.609 399.047C512.234 399.047 512.797 399 513.297 398.906C513.797 398.781 514.234 398.656 514.609 398.531C515.016 398.375 515.344 398.25 515.594 398.156C515.875 398.031 516.125 397.969 516.344 397.969C516.531 397.969 516.703 398.031 516.859 398.156C517.047 398.25 517.188 398.469 517.281 398.812C517.375 399.125 517.453 399.562 517.516 400.125C517.609 400.688 517.656 401.406 517.656 402.281Z" fill="black"/>
</g>
<defs>
<clipPath id="clip0_23_10">
<rect width="650" height="650" rx="325" fill="white"/>
</clipPath>
</defs>
</svg>
