<svg width="44" height="44" viewBox="0 0 44 44" fill="none" xmlns="http://www.w3.org/2000/svg">
<rect width="44" height="44" fill="black"/>
<rect width="11.541" height="2.88525" transform="matrix(1 0 0 -1 24.5273 11.541)" fill="#E1C3FF"/>
<rect x="33.1836" y="8.65576" width="2.88525" height="14.4262" fill="#E1C3FF"/>
<rect width="11.541" height="2.88525" transform="matrix(0 -1 -1 0 5.76953 15.8689)" fill="#976094"/>
<rect x="2.88281" y="7.21313" width="2.88525" height="17.3115" transform="rotate(-90 2.88281 7.21313)" fill="#976094"/>
<rect width="11.541" height="2.88525" transform="matrix(0 1 1 0 36.7852 28.8525)" fill="#976094"/>
<rect x="39.6719" y="37.5083" width="2.88525" height="17.3115" transform="rotate(90 39.6719 37.5083)" fill="#976094"/>
<rect width="11.541" height="2.88525" transform="matrix(-1 0 0 1 18.0312 34.623)" fill="#E1C3FF"/>
<rect x="9.37891" y="37.5083" width="2.88525" height="14.4262" transform="rotate(180 9.37891 37.5083)" fill="#E1C3FF"/>
<path d="M19.3984 25.4688C19.707 25.4688 19.9717 25.4814 20.1924 25.5068C20.4131 25.5322 20.5986 25.5703 20.749 25.6211C20.9014 25.6699 21.0225 25.7314 21.1123 25.8057C21.2021 25.8799 21.2715 25.9648 21.3203 26.0605C21.3691 26.1543 21.4004 26.2598 21.4141 26.377C21.4297 26.4941 21.4375 26.6211 21.4375 26.7578C21.4375 26.8945 21.4248 27.0234 21.3994 27.1445C21.376 27.2637 21.333 27.373 21.2705 27.4727C21.208 27.5723 21.123 27.6611 21.0156 27.7393C20.9082 27.8174 20.7715 27.8838 20.6055 27.9385C20.4395 27.9932 20.2393 28.0342 20.0049 28.0615C19.7725 28.0908 19.5 28.1055 19.1875 28.1055H18.4375C18.1562 28.1055 17.9102 28.0947 17.6992 28.0732C17.4883 28.0518 17.3066 28.0195 17.1543 27.9766C17.002 27.9316 16.876 27.876 16.7764 27.8096C16.6768 27.7412 16.5967 27.6621 16.5361 27.5723C16.4775 27.4805 16.4365 27.377 16.4131 27.2617C16.3896 27.1445 16.3779 27.0156 16.3779 26.875H16.9404C16.9404 27.0508 16.9658 27.1885 17.0166 27.2881C17.0674 27.3877 17.1514 27.4629 17.2686 27.5137C17.3857 27.5625 17.5391 27.5938 17.7285 27.6074C17.9199 27.6191 18.1562 27.625 18.4375 27.625H19.1875C19.5156 27.625 19.7881 27.6094 20.0049 27.5781C20.2217 27.5469 20.3945 27.4971 20.5234 27.4287C20.6523 27.3604 20.7432 27.2715 20.7959 27.1621C20.8486 27.0508 20.875 26.916 20.875 26.7578C20.875 26.5996 20.8564 26.4678 20.8193 26.3623C20.7842 26.2568 20.7129 26.1729 20.6055 26.1104C20.5 26.0479 20.3506 26.0039 20.1572 25.9785C19.9639 25.9512 19.7109 25.9375 19.3984 25.9375H18.625C18.2812 25.9375 17.9863 25.9248 17.7402 25.8994C17.4961 25.874 17.291 25.8379 17.125 25.791C16.959 25.7422 16.8262 25.6826 16.7266 25.6123C16.627 25.54 16.5508 25.458 16.498 25.3662C16.4473 25.2744 16.4141 25.1729 16.3984 25.0615C16.3828 24.9482 16.375 24.8262 16.375 24.6953C16.375 24.5586 16.3867 24.4316 16.4102 24.3145C16.4355 24.1973 16.4814 24.0918 16.5479 23.998C16.6143 23.9023 16.7051 23.8174 16.8203 23.7432C16.9355 23.6689 17.083 23.6074 17.2627 23.5586C17.4443 23.5078 17.6621 23.4697 17.916 23.4443C18.1699 23.4189 18.4688 23.4062 18.8125 23.4062H19.375C19.6562 23.4062 19.9023 23.417 20.1133 23.4385C20.3242 23.458 20.5059 23.4902 20.6582 23.5352C20.8105 23.5781 20.9365 23.6328 21.0361 23.6992C21.1377 23.7637 21.2178 23.8418 21.2764 23.9336C21.3369 24.0234 21.3789 24.126 21.4023 24.2412C21.4258 24.3564 21.4375 24.4844 21.4375 24.625H20.875C20.875 24.4492 20.8496 24.3115 20.7988 24.2119C20.748 24.1123 20.6641 24.0381 20.5469 23.9893C20.4297 23.9385 20.2754 23.9072 20.084 23.8955C19.8926 23.8818 19.6562 23.875 19.375 23.875H18.8125C18.4375 23.875 18.1289 23.8887 17.8867 23.916C17.6445 23.9414 17.4531 23.9854 17.3125 24.0479C17.1719 24.1104 17.0742 24.1943 17.0195 24.2998C16.9648 24.4053 16.9375 24.5371 16.9375 24.6953C16.9375 24.793 16.9443 24.8799 16.958 24.9561C16.9717 25.0322 16.999 25.0996 17.04 25.1582C17.083 25.2148 17.1426 25.2627 17.2188 25.3018C17.2949 25.3408 17.3955 25.373 17.5205 25.3984C17.6455 25.4238 17.7979 25.4424 17.9775 25.4541C18.1592 25.4639 18.375 25.4688 18.625 25.4688H19.3984ZM25.75 28H25.1875V26.0957C25.1875 25.8926 25.1738 25.7217 25.1465 25.583C25.1211 25.4424 25.0674 25.3291 24.9854 25.2432C24.9053 25.1572 24.791 25.0957 24.6426 25.0586C24.4961 25.0195 24.3027 25 24.0625 25C23.7988 25 23.582 25.0225 23.4121 25.0674C23.2422 25.1104 23.1084 25.1719 23.0107 25.252C22.9131 25.3301 22.8447 25.4248 22.8057 25.5361C22.7686 25.6475 22.75 25.7715 22.75 25.9082V28H22.1875V24.625H22.75V25.1582C22.752 25.1523 22.7607 25.1328 22.7764 25.0996C22.792 25.0664 22.8193 25.0273 22.8584 24.9824C22.8994 24.9355 22.9541 24.8857 23.0225 24.833C23.0928 24.7803 23.1826 24.7314 23.292 24.6865C23.4033 24.6416 23.5371 24.6045 23.6934 24.5752C23.8496 24.5459 24.0352 24.5312 24.25 24.5312C24.4609 24.5312 24.6436 24.5449 24.7979 24.5723C24.9541 24.5977 25.0869 24.6367 25.1963 24.6895C25.3076 24.7402 25.3975 24.8047 25.4658 24.8828C25.5361 24.959 25.5918 25.0469 25.6328 25.1465C25.666 25.0938 25.7178 25.0322 25.7881 24.9619C25.8584 24.8916 25.9561 24.8242 26.0811 24.7598C26.208 24.6953 26.3662 24.6416 26.5557 24.5986C26.7451 24.5537 26.9766 24.5312 27.25 24.5312C27.4746 24.5312 27.667 24.5469 27.8271 24.5781C27.9893 24.6074 28.126 24.6523 28.2373 24.7129C28.3486 24.7715 28.4375 24.8447 28.5039 24.9326C28.5723 25.0205 28.624 25.123 28.6592 25.2402C28.6963 25.3555 28.7207 25.4854 28.7324 25.6299C28.7441 25.7725 28.75 25.9277 28.75 26.0957V28H28.1875V26.0957C28.1875 25.8926 28.1738 25.7217 28.1465 25.583C28.1211 25.4424 28.0674 25.3291 27.9854 25.2432C27.9053 25.1572 27.791 25.0957 27.6426 25.0586C27.4961 25.0195 27.3027 25 27.0625 25C26.7988 25 26.582 25.0225 26.4121 25.0674C26.2422 25.1104 26.1084 25.1719 26.0107 25.252C25.9131 25.3301 25.8447 25.4248 25.8057 25.5361C25.7686 25.6475 25.75 25.7715 25.75 25.9082V28ZM32.8604 27.5371C32.8545 27.5605 32.8105 27.6191 32.7285 27.7129C32.6699 27.7832 32.5918 27.8457 32.4941 27.9004C32.3965 27.9531 32.2656 27.9941 32.1016 28.0234C31.9395 28.0547 31.7256 28.0703 31.46 28.0703C31.1064 28.0703 30.8047 28.0518 30.5547 28.0146C30.3047 27.9795 30.1006 27.9248 29.9424 27.8506C29.7842 27.7744 29.668 27.6777 29.5938 27.5605C29.5215 27.4434 29.4854 27.3037 29.4854 27.1416C29.4854 26.9717 29.5049 26.8281 29.5439 26.7109C29.585 26.5918 29.6436 26.4922 29.7197 26.4121C29.7979 26.332 29.8916 26.2695 30.001 26.2246C30.1104 26.1797 30.2344 26.1455 30.373 26.1221C30.5137 26.0986 30.667 26.084 30.833 26.0781C30.999 26.0723 31.1758 26.0693 31.3633 26.0693C31.6309 26.0693 31.8545 26.0811 32.0342 26.1045C32.2139 26.126 32.3604 26.1543 32.4736 26.1895C32.5889 26.2227 32.6758 26.2588 32.7344 26.2979C32.793 26.3369 32.835 26.373 32.8604 26.4062C32.8604 26.1875 32.8506 26.001 32.8311 25.8467C32.8135 25.6924 32.7832 25.5635 32.7402 25.46C32.6992 25.3564 32.6455 25.2744 32.5791 25.2139C32.5127 25.1514 32.4307 25.1045 32.333 25.0732C32.2373 25.042 32.125 25.0225 31.9961 25.0146C31.8672 25.0049 31.7197 25 31.5537 25C31.2959 25 31.082 25.0068 30.9121 25.0205C30.7422 25.0322 30.6074 25.0566 30.5078 25.0938C30.4082 25.1309 30.3379 25.1826 30.2969 25.249C30.2559 25.3135 30.2354 25.3984 30.2354 25.5039H29.6729C29.6729 25.3262 29.7041 25.1758 29.7666 25.0527C29.8311 24.9297 29.9365 24.8301 30.083 24.7539C30.2314 24.6758 30.4258 24.6191 30.666 24.584C30.9062 24.5488 31.2021 24.5312 31.5537 24.5312C31.8975 24.5312 32.1885 24.5596 32.4268 24.6162C32.665 24.6729 32.8574 24.7725 33.0039 24.915C33.1523 25.0576 33.2588 25.25 33.3232 25.4922C33.3896 25.7324 33.4229 26.0371 33.4229 26.4062V28H32.8604V27.5371ZM31.5537 27.625C31.8018 27.625 32.0088 27.6133 32.1748 27.5898C32.3428 27.5664 32.4775 27.5312 32.5791 27.4844C32.6807 27.4375 32.7529 27.3789 32.7959 27.3086C32.8389 27.2383 32.8604 27.1562 32.8604 27.0625C32.8604 26.9688 32.835 26.8896 32.7842 26.8252C32.7354 26.7588 32.6523 26.7051 32.5352 26.6641C32.4199 26.623 32.2666 26.5938 32.0752 26.5762C31.8838 26.5566 31.6475 26.5469 31.3662 26.5469C31.085 26.5469 30.8574 26.5518 30.6836 26.5615C30.5117 26.5713 30.3789 26.5938 30.2852 26.6289C30.1914 26.6641 30.1279 26.7158 30.0947 26.7842C30.0635 26.8525 30.0479 26.9453 30.0479 27.0625C30.0479 27.1797 30.0645 27.2754 30.0977 27.3496C30.1328 27.4219 30.2031 27.4785 30.3086 27.5195C30.4141 27.5605 30.5654 27.5889 30.7627 27.6045C30.9619 27.6182 31.2256 27.625 31.5537 27.625ZM37.082 25.7236C37.082 25.583 37.0713 25.4668 37.0498 25.375C37.0303 25.2812 36.9824 25.207 36.9062 25.1523C36.8301 25.0957 36.7168 25.0566 36.5664 25.0352C36.418 25.0117 36.2148 25 35.957 25C35.7051 25 35.5 25.0225 35.3418 25.0674C35.1836 25.1104 35.0596 25.1719 34.9697 25.252C34.8799 25.332 34.8184 25.4277 34.7852 25.5391C34.7539 25.6504 34.7383 25.7744 34.7383 25.9111V28H34.1758V24.625H34.7383V25.1611C34.7578 25.1006 34.7939 25.0342 34.8467 24.9619C34.8994 24.8877 34.9795 24.8193 35.0869 24.7568C35.1943 24.6924 35.333 24.6387 35.5029 24.5957C35.6748 24.5527 35.8887 24.5312 36.1445 24.5312C36.4375 24.5312 36.6758 24.5576 36.8594 24.6104C37.043 24.6611 37.1855 24.7373 37.2871 24.8389C37.3906 24.9385 37.46 25.0625 37.4951 25.2109C37.5322 25.3594 37.5508 25.5303 37.5508 25.7236H37.082ZM41.207 26.5C41.207 26.7871 41.1836 27.0273 41.1367 27.2207C41.0898 27.4121 41.0107 27.5654 40.8994 27.6807C40.79 27.7959 40.6455 27.8779 40.4658 27.9268C40.2861 27.9756 40.0645 28 39.8008 28C39.5449 28 39.3301 27.9805 39.1562 27.9414C38.9824 27.9023 38.8418 27.8359 38.7344 27.7422C38.627 27.6484 38.5498 27.5234 38.5029 27.3672C38.4561 27.2109 38.4326 27.0156 38.4326 26.7812V25.0879H37.7383V24.625H38.4326V23.7021H38.9951V24.625H41.1133V25.0879H38.9951V26.7812C38.9951 26.9688 39.0088 27.1133 39.0361 27.2148C39.0654 27.3164 39.1113 27.3906 39.1738 27.4375C39.2363 27.4844 39.3184 27.5117 39.4199 27.5195C39.5234 27.5273 39.6494 27.5312 39.7979 27.5312C39.915 27.5312 40.0195 27.5293 40.1113 27.5254C40.2051 27.5215 40.2861 27.5098 40.3545 27.4902C40.4248 27.4688 40.4844 27.4375 40.5332 27.3965C40.582 27.3535 40.6211 27.2939 40.6504 27.2178C40.6816 27.1416 40.7041 27.0459 40.7178 26.9307C40.7314 26.8135 40.7383 26.6699 40.7383 26.5H41.207Z" fill="white"/>
<path d="M11.3984 16.4688C11.707 16.4688 11.9717 16.4814 12.1924 16.5068C12.4131 16.5322 12.5986 16.5703 12.749 16.6211C12.9014 16.6699 13.0225 16.7314 13.1123 16.8057C13.2021 16.8799 13.2715 16.9648 13.3203 17.0605C13.3691 17.1543 13.4004 17.2598 13.4141 17.377C13.4297 17.4941 13.4375 17.6211 13.4375 17.7578C13.4375 17.8945 13.4248 18.0234 13.3994 18.1445C13.376 18.2637 13.333 18.373 13.2705 18.4727C13.208 18.5723 13.123 18.6611 13.0156 18.7393C12.9082 18.8174 12.7715 18.8838 12.6055 18.9385C12.4395 18.9932 12.2393 19.0342 12.0049 19.0615C11.7725 19.0908 11.5 19.1055 11.1875 19.1055H10.4375C10.1562 19.1055 9.91016 19.0947 9.69922 19.0732C9.48828 19.0518 9.30664 19.0195 9.1543 18.9766C9.00195 18.9316 8.87598 18.876 8.77637 18.8096C8.67676 18.7412 8.59668 18.6621 8.53613 18.5723C8.47754 18.4805 8.43652 18.377 8.41309 18.2617C8.38965 18.1445 8.37793 18.0156 8.37793 17.875H8.94043C8.94043 18.0508 8.96582 18.1885 9.0166 18.2881C9.06738 18.3877 9.15137 18.4629 9.26855 18.5137C9.38574 18.5625 9.53906 18.5938 9.72852 18.6074C9.91992 18.6191 10.1562 18.625 10.4375 18.625H11.1875C11.5156 18.625 11.7881 18.6094 12.0049 18.5781C12.2217 18.5469 12.3945 18.4971 12.5234 18.4287C12.6523 18.3604 12.7432 18.2715 12.7959 18.1621C12.8486 18.0508 12.875 17.916 12.875 17.7578C12.875 17.5996 12.8564 17.4678 12.8193 17.3623C12.7842 17.2568 12.7129 17.1729 12.6055 17.1104C12.5 17.0479 12.3506 17.0039 12.1572 16.9785C11.9639 16.9512 11.7109 16.9375 11.3984 16.9375H10.625C10.2812 16.9375 9.98633 16.9248 9.74023 16.8994C9.49609 16.874 9.29102 16.8379 9.125 16.791C8.95898 16.7422 8.82617 16.6826 8.72656 16.6123C8.62695 16.54 8.55078 16.458 8.49805 16.3662C8.44727 16.2744 8.41406 16.1729 8.39844 16.0615C8.38281 15.9482 8.375 15.8262 8.375 15.6953C8.375 15.5586 8.38672 15.4316 8.41016 15.3145C8.43555 15.1973 8.48145 15.0918 8.54785 14.998C8.61426 14.9023 8.70508 14.8174 8.82031 14.7432C8.93555 14.6689 9.08301 14.6074 9.2627 14.5586C9.44434 14.5078 9.66211 14.4697 9.91602 14.4443C10.1699 14.4189 10.4688 14.4062 10.8125 14.4062H11.375C11.6562 14.4062 11.9023 14.417 12.1133 14.4385C12.3242 14.458 12.5059 14.4902 12.6582 14.5352C12.8105 14.5781 12.9365 14.6328 13.0361 14.6992C13.1377 14.7637 13.2178 14.8418 13.2764 14.9336C13.3369 15.0234 13.3789 15.126 13.4023 15.2412C13.4258 15.3564 13.4375 15.4844 13.4375 15.625H12.875C12.875 15.4492 12.8496 15.3115 12.7988 15.2119C12.748 15.1123 12.6641 15.0381 12.5469 14.9893C12.4297 14.9385 12.2754 14.9072 12.084 14.8955C11.8926 14.8818 11.6562 14.875 11.375 14.875H10.8125C10.4375 14.875 10.1289 14.8887 9.88672 14.916C9.64453 14.9414 9.45312 14.9854 9.3125 15.0479C9.17188 15.1104 9.07422 15.1943 9.01953 15.2998C8.96484 15.4053 8.9375 15.5371 8.9375 15.6953C8.9375 15.793 8.94434 15.8799 8.95801 15.9561C8.97168 16.0322 8.99902 16.0996 9.04004 16.1582C9.08301 16.2148 9.14258 16.2627 9.21875 16.3018C9.29492 16.3408 9.39551 16.373 9.52051 16.3984C9.64551 16.4238 9.79785 16.4424 9.97754 16.4541C10.1592 16.4639 10.375 16.4688 10.625 16.4688H11.3984ZM17.4688 17.5C17.4688 17.7871 17.4453 18.0273 17.3984 18.2207C17.3516 18.4121 17.2725 18.5654 17.1611 18.6807C17.0518 18.7959 16.9072 18.8779 16.7275 18.9268C16.5479 18.9756 16.3262 19 16.0625 19C15.8066 19 15.5918 18.9805 15.418 18.9414C15.2441 18.9023 15.1035 18.8359 14.9961 18.7422C14.8887 18.6484 14.8115 18.5234 14.7646 18.3672C14.7178 18.2109 14.6943 18.0156 14.6943 17.7812V16.0879H14V15.625H14.6943V14.7021H15.2568V15.625H17.375V16.0879H15.2568V17.7812C15.2568 17.9688 15.2705 18.1133 15.2979 18.2148C15.3271 18.3164 15.373 18.3906 15.4355 18.4375C15.498 18.4844 15.5801 18.5117 15.6816 18.5195C15.7852 18.5273 15.9111 18.5312 16.0596 18.5312C16.1768 18.5312 16.2812 18.5293 16.373 18.5254C16.4668 18.5215 16.5479 18.5098 16.6162 18.4902C16.6865 18.4688 16.7461 18.4375 16.7949 18.3965C16.8438 18.3535 16.8828 18.2939 16.9121 18.2178C16.9434 18.1416 16.9658 18.0459 16.9795 17.9307C16.9932 17.8135 17 17.6699 17 17.5H17.4688ZM21.3916 18.5371C21.3857 18.5605 21.3418 18.6191 21.2598 18.7129C21.2012 18.7832 21.123 18.8457 21.0254 18.9004C20.9277 18.9531 20.7969 18.9941 20.6328 19.0234C20.4707 19.0547 20.2568 19.0703 19.9912 19.0703C19.6377 19.0703 19.3359 19.0518 19.0859 19.0146C18.8359 18.9795 18.6318 18.9248 18.4736 18.8506C18.3154 18.7744 18.1992 18.6777 18.125 18.5605C18.0527 18.4434 18.0166 18.3037 18.0166 18.1416C18.0166 17.9717 18.0361 17.8281 18.0752 17.7109C18.1162 17.5918 18.1748 17.4922 18.251 17.4121C18.3291 17.332 18.4229 17.2695 18.5322 17.2246C18.6416 17.1797 18.7656 17.1455 18.9043 17.1221C19.0449 17.0986 19.1982 17.084 19.3643 17.0781C19.5303 17.0723 19.707 17.0693 19.8945 17.0693C20.1621 17.0693 20.3857 17.0811 20.5654 17.1045C20.7451 17.126 20.8916 17.1543 21.0049 17.1895C21.1201 17.2227 21.207 17.2588 21.2656 17.2979C21.3242 17.3369 21.3662 17.373 21.3916 17.4062C21.3916 17.1875 21.3818 17.001 21.3623 16.8467C21.3447 16.6924 21.3145 16.5635 21.2715 16.46C21.2305 16.3564 21.1768 16.2744 21.1104 16.2139C21.0439 16.1514 20.9619 16.1045 20.8643 16.0732C20.7686 16.042 20.6562 16.0225 20.5273 16.0146C20.3984 16.0049 20.251 16 20.085 16C19.8271 16 19.6133 16.0068 19.4434 16.0205C19.2734 16.0322 19.1387 16.0566 19.0391 16.0938C18.9395 16.1309 18.8691 16.1826 18.8281 16.249C18.7871 16.3135 18.7666 16.3984 18.7666 16.5039H18.2041C18.2041 16.3262 18.2354 16.1758 18.2979 16.0527C18.3623 15.9297 18.4678 15.8301 18.6143 15.7539C18.7627 15.6758 18.957 15.6191 19.1973 15.584C19.4375 15.5488 19.7334 15.5312 20.085 15.5312C20.4287 15.5312 20.7197 15.5596 20.958 15.6162C21.1963 15.6729 21.3887 15.7725 21.5352 15.915C21.6836 16.0576 21.79 16.25 21.8545 16.4922C21.9209 16.7324 21.9541 17.0371 21.9541 17.4062V19H21.3916V18.5371ZM20.085 18.625C20.333 18.625 20.54 18.6133 20.7061 18.5898C20.874 18.5664 21.0088 18.5312 21.1104 18.4844C21.2119 18.4375 21.2842 18.3789 21.3271 18.3086C21.3701 18.2383 21.3916 18.1562 21.3916 18.0625C21.3916 17.9688 21.3662 17.8896 21.3154 17.8252C21.2666 17.7588 21.1836 17.7051 21.0664 17.6641C20.9512 17.623 20.7979 17.5938 20.6064 17.5762C20.415 17.5566 20.1787 17.5469 19.8975 17.5469C19.6162 17.5469 19.3887 17.5518 19.2148 17.5615C19.043 17.5713 18.9102 17.5938 18.8164 17.6289C18.7227 17.6641 18.6592 17.7158 18.626 17.7842C18.5947 17.8525 18.5791 17.9453 18.5791 18.0625C18.5791 18.1797 18.5957 18.2754 18.6289 18.3496C18.6641 18.4219 18.7344 18.4785 18.8398 18.5195C18.9453 18.5605 19.0967 18.5889 19.2939 18.6045C19.4932 18.6182 19.7568 18.625 20.085 18.625ZM25.6133 16.7236C25.6133 16.583 25.6025 16.4668 25.5811 16.375C25.5615 16.2812 25.5137 16.207 25.4375 16.1523C25.3613 16.0957 25.248 16.0566 25.0977 16.0352C24.9492 16.0117 24.7461 16 24.4883 16C24.2363 16 24.0312 16.0225 23.873 16.0674C23.7148 16.1104 23.5908 16.1719 23.501 16.252C23.4111 16.332 23.3496 16.4277 23.3164 16.5391C23.2852 16.6504 23.2695 16.7744 23.2695 16.9111V19H22.707V15.625H23.2695V16.1611C23.2891 16.1006 23.3252 16.0342 23.3779 15.9619C23.4307 15.8877 23.5107 15.8193 23.6182 15.7568C23.7256 15.6924 23.8643 15.6387 24.0342 15.5957C24.2061 15.5527 24.4199 15.5312 24.6758 15.5312C24.9688 15.5312 25.207 15.5576 25.3906 15.6104C25.5742 15.6611 25.7168 15.7373 25.8184 15.8389C25.9219 15.9385 25.9912 16.0625 26.0264 16.2109C26.0635 16.3594 26.082 16.5303 26.082 16.7236H25.6133ZM29.7383 17.5C29.7383 17.7871 29.7148 18.0273 29.668 18.2207C29.6211 18.4121 29.542 18.5654 29.4307 18.6807C29.3213 18.7959 29.1768 18.8779 28.9971 18.9268C28.8174 18.9756 28.5957 19 28.332 19C28.0762 19 27.8613 18.9805 27.6875 18.9414C27.5137 18.9023 27.373 18.8359 27.2656 18.7422C27.1582 18.6484 27.0811 18.5234 27.0342 18.3672C26.9873 18.2109 26.9639 18.0156 26.9639 17.7812V16.0879H26.2695V15.625H26.9639V14.7021H27.5264V15.625H29.6445V16.0879H27.5264V17.7812C27.5264 17.9688 27.54 18.1133 27.5674 18.2148C27.5967 18.3164 27.6426 18.3906 27.7051 18.4375C27.7676 18.4844 27.8496 18.5117 27.9512 18.5195C28.0547 18.5273 28.1807 18.5312 28.3291 18.5312C28.4463 18.5312 28.5508 18.5293 28.6426 18.5254C28.7363 18.5215 28.8174 18.5098 28.8857 18.4902C28.9561 18.4688 29.0156 18.4375 29.0645 18.3965C29.1133 18.3535 29.1523 18.2939 29.1816 18.2178C29.2129 18.1416 29.2354 18.0459 29.249 17.9307C29.2627 17.8135 29.2695 17.6699 29.2695 17.5H29.7383Z" fill="white"/>
</svg>
