<!-- icon666.com - MILLIONS vector ICONS FREE --><svg viewBox="0 0 16 16" xmlns="http://www.w3.org/2000/svg"><g id="_28" data-name="28"><path d="m8 9a7.6 7.6 0 0 1 -4.76-1.67l-3.05-2.44a.5.5 0 1 1 .62-.78l3.05 2.44a6.64 6.64 0 0 0 8.28 0l3-2.44a.5.5 0 1 1 .62.78l-3 2.44a7.6 7.6 0 0 1 -4.76 1.67z" fill="#000000" style="fill: rgb(255, 255, 255);"></path><path d="m5.5 13a.54.54 0 0 1 -.22 0 .51.51 0 0 1 -.23-.67l1-2a.5.5 0 0 1 .9.44l-1 2a.5.5 0 0 1 -.45.23z" fill="#000000" style="fill: rgb(255, 255, 255);"></path><path d="m10.5 13a.5.5 0 0 1 -.45-.28l-1-2a.5.5 0 1 1 .9-.44l1 2a.51.51 0 0 1 -.23.67.54.54 0 0 1 -.22.05z" fill="#000000" style="fill: rgb(255, 255, 255);"></path><path d="m13.5 11a.47.47 0 0 1 -.35-.15l-1-1a.49.49 0 0 1 .7-.7l1 1a.48.48 0 0 1 0 .7.47.47 0 0 1 -.35.15z" fill="#000000" style="fill: rgb(255, 255, 255);"></path><path d="m2.5 11a.47.47 0 0 1 -.35-.15.48.48 0 0 1 0-.7l1-1a.49.49 0 1 1 .7.7l-1 1a.47.47 0 0 1 -.35.15z" fill="#000000" style="fill: rgb(255, 255, 255);"></path></g></svg>